<svg width="554" height="548" viewBox="0 0 554 548" fill="none" xmlns="http://www.w3.org/2000/svg">
<path d="M378.896 460.19C381.196 459.171 383.497 458.767 385.799 458.978C388.084 459.233 390.158 460.033 392.022 461.38C393.899 462.756 395.36 464.625 396.406 466.985C397.465 469.376 397.867 471.714 397.613 473.999C397.358 476.284 396.551 478.343 395.191 480.176C393.831 482.009 391.986 483.442 389.656 484.475C387.296 485.521 384.98 485.931 382.708 485.707C380.406 485.496 378.339 484.71 376.505 483.351C374.642 482.004 373.18 480.136 372.121 477.745C371.075 475.385 370.673 473.047 370.914 470.732C371.139 468.46 371.939 466.386 373.316 464.509C374.706 462.662 376.566 461.222 378.896 460.19ZM380.163 463.05C378.438 463.814 377.078 464.869 376.082 466.216C375.099 467.592 374.537 469.144 374.398 470.872C374.241 472.643 374.571 474.451 375.389 476.297C376.221 478.173 377.338 479.633 378.742 480.676C380.115 481.733 381.635 482.345 383.302 482.512C384.982 482.708 386.669 482.431 388.364 481.681C390.058 480.93 391.397 479.866 392.38 478.489C393.376 477.143 393.96 475.599 394.13 473.859C394.3 472.118 393.969 470.309 393.138 468.433C392.32 466.587 391.202 465.127 389.785 464.054C388.382 463.01 386.84 462.39 385.16 462.193C383.493 462.027 381.828 462.312 380.163 463.05Z" fill="black"/>
<path d="M319.381 481.995C321.483 481.729 323.398 481.837 325.127 482.319C326.823 482.804 328.336 483.681 329.664 484.947C330.991 486.214 332.082 487.844 332.935 489.838C333.792 491.865 334.395 494.257 334.744 497.015C335.056 499.478 335.098 501.658 334.871 503.555C334.648 505.485 334.211 507.175 333.561 508.625C332.91 510.075 332.101 511.329 331.134 512.385C330.138 513.479 329.035 514.386 327.825 515.106C326.587 515.863 325.296 516.477 323.955 516.947L312.673 521.127L311.671 517.951L322.294 514.105C322.963 513.853 323.771 513.517 324.719 513.097C325.633 512.681 326.562 512.113 327.506 511.393C328.416 510.678 329.231 509.74 329.952 508.581C330.673 507.423 331.19 505.973 331.504 504.232C331.788 502.527 331.775 500.444 331.463 497.981C331.397 497.456 331.326 497.031 331.252 496.707C331.182 496.415 331.107 496.091 331.029 495.734C330.921 495.414 330.81 494.928 330.694 494.275L332.383 495.363C332.275 497.411 331.757 499.245 330.827 500.864C329.902 502.516 328.654 503.858 327.083 504.891C325.484 505.961 323.649 506.627 321.581 506.889C319.184 507.192 316.983 506.937 314.978 506.123C312.978 505.342 311.336 504.098 310.052 502.392C308.736 500.691 307.924 498.625 307.616 496.195C307.313 493.798 307.599 491.576 308.474 489.531C309.317 487.489 310.671 485.799 312.537 484.462C314.407 483.158 316.689 482.336 319.381 481.995ZM319.355 484.951C317.516 485.183 315.943 485.8 314.634 486.799C313.331 487.832 312.376 489.12 311.771 490.665C311.133 492.213 310.928 493.891 311.156 495.697C311.381 497.47 311.991 498.994 312.986 500.269C313.949 501.549 315.186 502.493 316.698 503.103C318.214 503.745 319.907 503.948 321.779 503.711C323.618 503.478 325.194 502.878 326.506 501.911C327.822 500.977 328.804 499.769 329.45 498.286C330.063 496.807 330.256 495.165 330.027 493.359C329.799 491.553 329.199 489.977 328.228 488.632C327.224 487.291 325.963 486.283 324.442 485.608C322.89 484.937 321.194 484.718 319.355 484.951Z" fill="black"/>
<path d="M268.886 477.481C270.097 477.663 271.229 478.034 272.283 478.595C273.304 479.15 274.148 479.88 274.815 480.784L272.803 483.142C272.242 482.421 271.61 481.841 270.907 481.4C270.175 480.922 269.335 480.611 268.386 480.468C267.24 480.295 266.209 480.475 265.292 481.006C264.348 481.5 263.378 482.492 262.384 483.982L260.145 487.511L259.671 487.992L245.466 510.304L242.029 509.786L259.289 482.863C260.26 481.303 261.262 480.098 262.294 479.249C263.292 478.395 264.329 477.849 265.402 477.609C266.481 477.336 267.642 477.293 268.886 477.481ZM260.652 485.479L268.54 513.779L264.907 513.232L257.965 487.986L260.652 485.479Z" fill="black"/>
<path d="M194.167 482.098C195.827 482.083 197.451 482.195 199.039 482.436C200.583 482.694 202.056 483.121 203.458 483.714C206.292 484.915 208.261 486.503 209.365 488.48C210.456 490.488 210.427 492.848 209.278 495.561L205.948 503.424L202.748 502.069L206 494.388C206.775 492.56 206.761 490.936 205.96 489.519C205.158 488.101 203.752 486.966 201.74 486.114C200.521 485.598 199.177 485.208 197.706 484.945C196.223 484.712 194.667 484.61 193.037 484.639L194.167 482.098ZM198.74 472.065L188.575 496.067L185.329 494.692L195.494 470.691L198.74 472.065Z" fill="black"/>
<path d="M154.568 449.119C156.718 450.775 158.264 452.674 159.203 454.818C160.123 456.987 160.436 459.212 160.143 461.493C159.829 463.799 158.885 465.975 157.31 468.021C155.736 470.067 153.91 471.544 151.833 472.451C149.73 473.339 147.575 473.643 145.367 473.363C143.113 473.09 141.028 472.217 139.114 470.743C137.173 469.249 135.798 467.481 134.989 465.438C134.134 463.402 133.89 461.25 134.256 458.984C134.602 456.744 135.572 454.588 137.167 452.516C137.268 452.385 137.392 452.251 137.539 452.114C137.64 451.983 137.751 451.838 137.872 451.681L155.852 465.52L154.247 467.606L137.762 454.917L139.5 454.939C138.349 456.434 137.658 458.011 137.425 459.669C137.146 461.334 137.305 462.918 137.902 464.422C138.499 465.926 139.518 467.233 140.961 468.343C142.377 469.433 143.902 470.085 145.534 470.297C147.167 470.509 148.752 470.268 150.29 469.572C151.828 468.876 153.183 467.768 154.353 466.246L154.687 465.814C155.898 464.24 156.627 462.587 156.874 460.856C157.074 459.131 156.82 457.453 156.112 455.822C155.358 454.197 154.181 452.769 152.581 451.537C151.322 450.568 149.983 449.893 148.565 449.511C147.12 449.109 145.651 449.064 144.157 449.376L143.977 446.355C145.743 445.96 147.543 446.009 149.377 446.502C151.185 446.975 152.915 447.847 154.568 449.119Z" fill="black"/>
<path d="M120.057 422.429L99.1596 438.007L97.0529 435.181L106.288 428.297L96.4662 415.121L87.2313 422.005L85.1246 419.179L106.022 403.601L108.129 406.427L98.8943 413.311L108.716 426.487L117.951 419.603L120.057 422.429Z" fill="black"/>
<path d="M82.708 370.654L58.207 379.548L57.0043 376.234L76.4651 369.17L51.0584 359.854L49.9912 356.913L74.4922 348.02L75.6949 351.333L56.1875 358.414L81.6239 367.667L82.708 370.654Z" fill="black"/>
<path d="M62.0165 299.771C62.2171 302.477 61.832 304.895 60.8614 307.025C59.8577 309.157 58.4084 310.874 56.5136 312.176C54.5857 313.481 52.3344 314.228 49.7598 314.419C47.1851 314.61 44.8672 314.234 42.806 313.291C40.7424 312.316 39.0785 310.912 37.8144 309.081C36.5148 307.219 35.7757 305.084 35.5972 302.674C35.4162 300.231 35.8172 298.028 36.8 296.063C37.7475 294.068 39.1876 292.451 41.1204 291.213C43.0201 289.977 45.2739 289.262 47.8815 289.069C48.0465 289.057 48.2293 289.06 48.4298 289.078C48.5948 289.066 48.7764 289.052 48.9744 289.038L50.6509 311.665L48.0268 311.859L46.4897 291.114L47.6322 292.423C45.7507 292.562 44.1144 293.098 42.7231 294.031C41.2965 294.933 40.2219 296.108 39.4994 297.556C38.7769 299.003 38.4829 300.635 38.6174 302.45C38.7495 304.233 39.2807 305.803 40.2111 307.161C41.1415 308.519 42.3787 309.54 43.9227 310.222C45.4668 310.904 47.1961 311.174 49.1105 311.032L49.6552 310.992C51.6357 310.845 53.3533 310.286 54.8081 309.316C56.2274 308.314 57.3087 307.006 58.052 305.391C58.7598 303.746 59.0391 301.916 58.8899 299.903C58.7725 298.318 58.3831 296.87 57.7217 295.558C57.0579 294.214 56.1116 293.089 54.883 292.184L57.0138 290.035C58.4857 291.088 59.6496 292.462 60.5054 294.157C61.3587 295.82 61.8625 297.691 62.0165 299.771Z" fill="black"/>
<path d="M132.42 118.761C130.446 120.321 128.319 121.286 126.037 121.655C123.761 121.978 121.553 121.72 119.412 120.881C117.251 120.016 115.37 118.57 113.769 116.545C112.147 114.494 111.175 112.33 110.852 110.054C110.529 107.778 110.797 105.582 111.657 103.468C112.517 101.354 113.947 99.5059 115.946 97.9253C117.971 96.3241 120.111 95.349 122.367 95C124.649 94.6306 126.847 94.8758 128.961 95.7356C131.102 96.5749 132.983 98.0201 134.605 100.071C136.206 102.096 137.178 104.26 137.522 106.562C137.871 108.818 137.613 111.027 136.747 113.187C135.861 115.322 134.419 117.18 132.42 118.761ZM130.48 116.307C131.96 115.137 133.014 113.776 133.643 112.224C134.252 110.645 134.409 109.003 134.114 107.295C133.824 105.541 133.053 103.872 131.801 102.288C130.528 100.679 129.082 99.5434 127.462 98.8828C125.869 98.2017 124.245 97.9882 122.589 98.2424C120.913 98.4706 119.348 99.1595 117.894 100.309C116.44 101.459 115.409 102.823 114.8 104.401C114.171 105.953 113.991 107.593 114.26 109.322C114.529 111.05 115.3 112.718 116.573 114.328C117.825 115.912 119.271 117.047 120.911 117.734C122.531 118.394 124.178 118.61 125.854 118.382C127.51 118.128 129.052 117.437 130.48 116.307Z" fill="black"/>
<path d="M184.606 82.8616C182.637 83.6428 180.755 84.0156 178.96 83.9798C177.196 83.9318 175.514 83.46 173.912 82.5643C172.31 81.6686 170.848 80.3615 169.525 78.643C168.19 76.8937 167.01 74.7269 165.985 72.1426C165.069 69.8352 164.485 67.7346 164.232 65.8409C163.967 63.9163 163.969 62.1708 164.238 60.6043C164.506 59.0377 164.978 57.6223 165.651 56.358C166.343 55.0508 167.185 53.8977 168.178 52.8986C169.189 51.8566 170.285 50.9408 171.467 50.1512L181.351 43.292L183.114 46.118L173.784 52.4902C173.199 52.9004 172.5 53.427 171.687 54.0701C170.905 54.701 170.146 55.4825 169.412 56.4147C168.709 57.3346 168.153 58.4456 167.744 59.7474C167.334 61.0493 167.195 62.5824 167.325 64.3468C167.474 66.0681 168.006 68.0825 168.922 70.3899C169.117 70.8822 169.291 71.276 169.444 71.5715C169.584 71.8362 169.737 72.1316 169.902 72.4578C170.086 72.7411 170.315 73.1843 170.59 73.7874L168.683 73.1551C168.277 71.1441 168.322 69.2389 168.819 67.4394C169.304 65.6092 170.178 63.9983 171.442 62.6066C172.724 61.1719 174.335 60.0701 176.273 59.3011C178.519 58.41 180.714 58.1089 182.858 58.3976C184.99 58.6555 186.89 59.4507 188.558 60.7829C190.257 62.103 191.558 63.9013 192.461 66.178C193.352 68.4239 193.629 70.6465 193.291 72.846C192.984 75.0332 192.093 77.0067 190.619 78.7666C189.133 80.4957 187.129 81.8607 184.606 82.8616ZM183.895 79.9924C185.618 79.3088 186.988 78.32 188.006 77.026C189.011 75.7012 189.615 74.2155 189.816 72.5689C190.048 70.91 189.828 69.2345 189.157 67.5424C188.498 65.8811 187.527 64.5569 186.245 63.5699C184.994 62.5707 183.561 61.9644 181.945 61.7509C180.317 61.5066 178.626 61.7324 176.873 62.4282C175.15 63.1117 173.773 64.0851 172.743 65.3484C171.701 66.5809 171.052 67.9958 170.795 69.5931C170.57 71.1782 170.792 72.8168 171.464 74.5089C172.135 76.201 173.109 77.5774 174.384 78.6382C175.69 79.6867 177.163 80.3485 178.804 80.6235C180.475 80.8863 182.172 80.6759 183.895 79.9924Z" fill="black"/>
<path d="M233.962 74.8092C232.744 74.9365 231.555 74.861 230.394 74.5829C229.267 74.3014 228.267 73.8069 227.394 73.0993L228.75 70.312C229.474 70.8687 230.232 71.2721 231.023 71.5222C231.851 71.8018 232.742 71.8917 233.697 71.7919C234.849 71.6716 235.802 71.2392 236.556 70.4948C237.347 69.7799 238.037 68.5764 238.625 66.8843L239.907 62.9067L240.245 62.3222L248.399 37.1603L251.855 36.7992L241.902 67.1909C241.353 68.9454 240.686 70.3629 239.9 71.4434C239.148 72.5204 238.282 73.3097 237.302 73.8113C236.326 74.3459 235.213 74.6785 233.962 74.8092ZM239.926 65.0012L225.191 39.5849L228.845 39.2031L241.898 61.8999L239.926 65.0012Z" fill="black"/>
<path d="M306.436 51.6964C304.83 52.1169 303.228 52.4041 301.63 52.5579C300.07 52.6841 298.537 52.6305 297.033 52.3969C293.991 51.9246 291.694 50.8646 290.141 49.2167C288.593 47.5361 288.045 45.2404 288.497 42.3295L289.807 33.8911L293.241 34.4243L291.961 42.6664C291.657 44.6288 292.066 46.1996 293.189 47.3789C294.313 48.5581 295.954 49.3153 298.112 49.6504C299.42 49.8535 300.82 49.9032 302.309 49.7996C303.804 49.6632 305.338 49.3822 306.912 48.9566L306.436 51.6964ZM304.451 62.542L308.45 36.7854L311.933 37.3262L307.934 63.0828L304.451 62.542Z" fill="black"/>
<path d="M353.031 73.9557C350.544 72.8705 348.584 71.4019 347.153 69.55C345.736 67.6677 344.893 65.5848 344.625 63.3013C344.37 60.9875 344.759 58.6475 345.791 56.2811C346.824 53.9148 348.237 52.0399 350.033 50.6563C351.858 49.286 353.876 48.4689 356.085 48.205C358.338 47.9239 360.572 48.2665 362.787 49.2325C365.032 50.2118 366.794 51.5944 368.073 53.3802C369.396 55.1489 370.154 57.1769 370.348 59.4642C370.555 61.7212 370.136 64.048 369.091 66.4447C369.025 66.5964 368.937 66.7566 368.827 66.9254C368.761 67.0771 368.688 67.244 368.609 67.426L347.812 58.3542L348.864 55.9424L367.931 64.2598L366.24 64.6596C366.995 62.9304 367.284 61.2329 367.108 59.5672C366.975 57.8844 366.437 56.3859 365.494 55.0716C364.55 53.7573 363.244 52.7363 361.576 52.0084C359.938 51.2938 358.301 51.0312 356.666 51.2206C355.03 51.41 353.551 52.0284 352.227 53.076C350.903 54.1236 349.858 55.5272 349.09 57.2868L348.872 57.7874C348.078 59.6076 347.771 61.3876 347.951 63.1272C348.174 64.8497 348.827 66.4163 349.909 67.8271C351.034 69.2208 352.522 70.3212 354.373 71.1285C355.829 71.7637 357.292 72.0947 358.76 72.1216C360.26 72.1617 361.696 71.8493 363.069 71.1845L363.976 74.0718C362.359 74.8828 360.6 75.2713 358.701 75.2374C356.833 75.2166 354.943 74.7894 353.031 73.9557Z" fill="black"/>
<path d="M392.911 91.2364L409.373 71.0278L412.106 73.2541L404.831 82.1844L417.572 92.5635L424.847 83.6332L427.58 85.8595L411.118 106.068L408.385 103.842L415.66 94.9115L402.919 84.5325L395.644 93.4627L392.911 91.2364Z" fill="black"/>
<path d="M440.778 130.965L462.296 116.256L464.285 119.166L447.194 130.849L474.12 133.552L475.885 136.134L454.367 150.844L452.378 147.934L469.51 136.222L442.571 133.588L440.778 130.965Z" fill="black"/>
<path d="M479.902 194.637C479.035 192.065 478.807 189.627 479.218 187.323C479.661 185.008 480.638 182.985 482.149 181.253C483.693 179.51 485.687 178.226 488.134 177.402C490.58 176.577 492.919 176.365 495.15 176.766C497.391 177.198 499.352 178.144 501.031 179.603C502.753 181.084 503.999 182.969 504.771 185.259C505.554 187.58 505.713 189.814 505.249 191.961C504.827 194.129 503.834 196.053 502.27 197.733C500.737 199.402 498.731 200.655 496.254 201.49C496.097 201.543 495.919 201.585 495.72 201.617C495.563 201.67 495.391 201.728 495.203 201.792L487.955 180.291L490.449 179.451L497.094 199.163L495.662 198.179C497.449 197.576 498.901 196.65 500.017 195.401C501.174 194.173 501.923 192.768 502.263 191.186C502.603 189.604 502.483 187.951 501.901 186.226C501.33 184.532 500.426 183.143 499.187 182.059C497.948 180.974 496.496 180.294 494.831 180.017C493.166 179.74 491.424 179.908 489.605 180.521L489.087 180.696C487.205 181.33 485.68 182.298 484.512 183.6C483.386 184.923 482.664 186.458 482.346 188.207C482.069 189.977 482.253 191.819 482.898 193.732C483.406 195.237 484.143 196.543 485.109 197.65C486.087 198.787 487.283 199.641 488.698 200.212L487.168 202.824C485.48 202.17 484.012 201.128 482.761 199.698C481.521 198.3 480.568 196.613 479.902 194.637Z" fill="black"/>
</svg>
