<svg width="561" height="563" viewBox="0 0 561 563" fill="none" xmlns="http://www.w3.org/2000/svg">
<path d="M277.354 503.055L273.961 526.703L270.763 526.244L272.262 515.794L257.353 513.654L255.853 524.104L252.655 523.645L256.048 499.998L259.247 500.457L257.747 510.907L272.656 513.046L274.156 502.596L277.354 503.055Z" fill="black"/>
<path d="M204.582 488.323C206.859 489.327 208.649 490.679 209.955 492.382C211.248 494.112 212.013 496.024 212.251 498.117C212.476 500.239 212.112 502.382 211.157 504.548C210.203 506.713 208.901 508.427 207.251 509.689C205.573 510.938 203.721 511.68 201.695 511.915C199.629 512.165 197.583 511.843 195.556 510.95C193.502 510.045 191.892 508.771 190.725 507.13C189.519 505.505 188.831 503.643 188.661 501.546C188.479 499.477 188.871 497.346 189.837 495.153C189.898 495.014 189.98 494.867 190.081 494.713C190.142 494.574 190.209 494.421 190.283 494.255L209.312 502.641L208.34 504.848L190.892 497.159L192.444 496.798C191.746 498.381 191.476 499.936 191.631 501.463C191.747 503.006 192.235 504.381 193.095 505.589C193.955 506.797 195.149 507.737 196.676 508.41C198.175 509.07 199.674 509.317 201.173 509.149C202.673 508.981 204.031 508.419 205.248 507.463C206.465 506.508 207.428 505.225 208.137 503.615L208.339 503.157C209.073 501.491 209.361 499.861 209.202 498.266C209.003 496.686 208.41 495.248 207.423 493.951C206.396 492.67 205.036 491.656 203.343 490.91C202.01 490.323 200.671 490.014 199.325 489.985C197.951 489.943 196.634 490.224 195.373 490.829L194.551 488.179C196.036 487.442 197.649 487.092 199.39 487.129C201.103 487.155 202.833 487.553 204.582 488.323Z" fill="black"/>
<path d="M166.43 471.517L150.363 475.473L151.391 474.256L151.189 489.919L148.342 487.651L148.564 474.738L149.603 475.624L137.095 478.692L134.319 476.48L149.697 472.731L148.584 474.055L148.777 457.454L151.66 459.75L151.368 473.481L150.485 472.545L163.583 469.249L166.43 471.517Z" fill="black"/>
<path d="M119.894 433.5L100.834 447.903L94.4689 439.481C92.8411 437.327 91.9722 435.322 91.8623 433.465C91.7341 431.585 92.4687 430.041 94.0661 428.834C95.6151 427.664 97.2612 427.351 99.0045 427.897C100.724 428.461 102.315 429.711 103.778 431.647L102.632 431.715C100.912 429.44 100.074 427.45 100.116 425.745C100.158 424.04 100.978 422.584 102.576 421.377C104.221 420.133 105.961 419.769 107.796 420.284C109.587 420.793 111.434 422.306 113.336 424.823L119.894 433.5ZM115.967 432.531L111.386 426.468C110.16 424.847 108.983 423.817 107.852 423.378C106.68 422.933 105.513 423.15 104.351 424.028C103.189 424.906 102.626 425.921 102.66 427.074C102.695 428.226 103.325 429.613 104.55 431.235L109.324 437.552L115.967 432.531ZM107.4 439.006L103.065 433.27C101.949 431.794 100.82 430.878 99.6785 430.525C98.5182 430.147 97.4056 430.36 96.3407 431.165C95.2758 431.97 94.7789 432.972 94.85 434.174C94.9028 435.35 95.4871 436.677 96.6028 438.153L100.938 443.889L107.4 439.006Z" fill="black"/>
<path d="M80.9492 374.362L76.0724 376.382L75.3259 376.839L67.1698 380.217C65.292 380.995 64.0691 382.125 63.5013 383.608C62.9218 385.063 63.0616 386.828 63.9206 388.902C64.5126 390.331 65.3139 391.592 66.3244 392.684C67.3348 393.775 68.4182 394.607 69.5744 395.179L67.9034 397.447C66.4862 396.721 65.2002 395.677 64.0457 394.317C62.8631 392.968 61.9119 391.425 61.1922 389.687C60.0081 386.828 59.8115 384.332 60.6025 382.198C61.3538 380.048 63.1728 378.376 66.0597 377.18L79.7651 371.503L80.9492 374.362ZM84.3111 381.884C84.996 383.538 85.3276 385.092 85.3059 386.546C85.2445 387.983 84.8708 389.221 84.1849 390.261C83.4709 391.312 82.4833 392.098 81.2221 392.621C80.0729 393.097 78.9256 393.26 77.7802 393.11C76.5951 392.944 75.4668 392.361 74.3955 391.36C73.2846 390.343 72.2938 388.783 71.4231 386.681L68.2714 379.071L70.4996 378.148L73.6165 385.674C74.4987 387.804 75.4924 389.133 76.5974 389.66C77.6907 390.159 78.798 390.177 79.9191 389.713C81.1803 389.19 81.9862 388.282 82.3366 386.987C82.6871 385.693 82.4966 384.163 81.7653 382.397C81.0688 380.715 80.0926 379.429 78.8366 378.537C77.5411 377.629 76.0485 377.196 74.3589 377.239L76.1403 375.714C77.8299 375.67 79.3994 376.17 80.8487 377.211C82.2863 378.225 83.4405 379.782 84.3111 381.884Z" fill="black"/>
<path d="M65.5859 331L43.9123 334.365L44.641 333.423L46.1558 343.181L43.3679 343.614L40.0939 322.525L42.8818 322.092L44.3966 331.849L43.4166 331.173L65.0903 327.808L65.5859 331Z" fill="black"/>
<path d="M60.662 269.726L48.0403 278.517L46.6809 275.707L60.9859 265.917L60.662 269.726ZM59.1772 287.182L35.3732 285.158L35.647 281.939L59.451 283.963L59.1772 287.182ZM48.7564 284.058L45.9906 283.823L46.6423 276.16L49.4081 276.396L48.7564 284.058ZM48.5177 275.589L47.8097 278.543L36.8271 268.064L37.124 264.573L48.5177 275.589Z" fill="black"/>
<path d="M69.649 217.306L64.6729 215.545L63.8123 215.385L55.4903 212.44C53.5742 211.762 51.9091 211.784 50.495 212.506C49.0909 213.2 48.0144 214.605 47.2653 216.721C46.7491 218.18 46.5013 219.653 46.5218 221.14C46.5424 222.628 46.7911 223.971 47.2679 225.169L44.5085 225.737C43.9411 224.249 43.6834 222.613 43.7354 220.83C43.7589 219.036 44.0844 217.252 44.712 215.479C45.7445 212.562 47.2683 210.576 49.2835 209.519C51.2802 208.424 53.7514 208.397 56.697 209.44L70.6814 214.389L69.649 217.306ZM67.1153 225.147C66.5181 226.834 65.7252 228.211 64.7364 229.277C63.7292 230.304 62.623 230.974 61.4179 231.288C60.1842 231.591 58.9238 231.515 57.6369 231.06C56.4644 230.645 55.5024 229.999 54.751 229.121C53.9811 228.205 53.5329 227.017 53.4063 225.556C53.2612 224.057 53.5683 222.234 54.3274 220.089L57.0756 212.325L59.3491 213.13L56.6313 220.808C55.8621 222.982 55.7117 224.634 56.1802 225.765C56.6588 226.868 57.47 227.622 58.614 228.027C59.9009 228.482 61.1075 228.346 62.2339 227.618C63.3604 226.891 64.2424 225.626 64.8801 223.825C65.4874 222.109 65.6226 220.499 65.2857 218.996C64.9304 217.454 64.1104 216.134 62.8257 215.036L65.1706 215.094C66.4552 216.192 67.2878 217.613 67.6682 219.357C68.0588 221.072 67.8745 223.002 67.1153 225.147Z" fill="black"/>
<path d="M108.066 144C106.467 145.744 104.652 146.961 102.621 147.651C100.588 148.298 98.5419 148.398 96.4826 147.951C94.401 147.484 92.4879 146.451 90.7433 144.852C88.9764 143.233 87.7807 141.417 87.1561 139.404C86.5315 137.392 86.4641 135.355 86.9539 133.294C87.4642 131.21 88.5187 129.296 90.1173 127.552C91.4905 126.053 93.0213 124.967 94.7095 124.292C96.3978 123.617 98.1412 123.466 99.9395 123.838L99.5179 126.723C98.0699 126.507 96.7235 126.652 95.4787 127.157C94.2339 127.662 93.1299 128.44 92.1666 129.491C91.0188 130.744 90.2746 132.14 89.9338 133.679C89.5706 135.198 89.637 136.72 90.1329 138.244C90.6289 139.768 91.5702 141.166 92.9569 142.436C94.3435 143.707 95.8177 144.523 97.3795 144.885C98.9412 145.246 100.474 145.19 101.978 144.716C103.459 144.222 104.774 143.349 105.922 142.096C106.885 141.045 107.564 139.877 107.959 138.593C108.354 137.309 108.392 135.966 108.073 134.562L110.91 133.891C111.415 135.63 111.416 137.38 110.914 139.141C110.388 140.881 109.439 142.501 108.066 144Z" fill="black"/>
<path d="M138.959 110.098L126.283 89.8485L129.022 88.1342L134.623 97.0826L147.39 89.0905L141.788 80.1421L144.527 78.4278L157.203 98.6774L154.465 100.392L148.863 91.4433L136.096 99.4354L141.698 108.384L138.959 110.098Z" fill="black"/>
<path d="M207.631 72.8279L206.154 67.7602L205.781 66.9683L203.311 58.493C202.743 56.5417 201.752 55.203 200.34 54.4771C198.957 53.7426 197.187 53.6895 195.032 54.3176C193.547 54.7505 192.206 55.4097 191.011 56.2953C189.816 57.1809 188.871 58.1672 188.176 59.2543L186.104 57.3463C186.98 56.0166 188.157 54.8519 189.635 53.8523C191.105 52.8236 192.743 52.0461 194.549 51.5199C197.519 50.6541 200.022 50.7304 202.057 51.749C204.112 52.7299 205.577 54.7202 206.451 57.7201L210.602 71.9621L207.631 72.8279ZM199.788 75.3509C198.069 75.8517 196.489 76.0121 195.046 75.8322C193.624 75.6147 192.433 75.1085 191.475 74.3134C190.508 73.4893 189.834 72.4219 189.452 71.1113C189.104 69.9172 189.066 68.7589 189.34 67.6365C189.633 66.4765 190.336 65.4185 191.448 64.4626C192.58 63.469 194.239 62.6539 196.423 62.0173L204.33 59.7128L205.005 62.0282L197.185 64.3072C194.972 64.9523 193.543 65.7954 192.898 66.8364C192.283 67.8689 192.145 68.9677 192.484 70.1327C192.866 71.4433 193.681 72.3432 194.93 72.8325C196.179 73.3218 197.72 73.2991 199.555 72.7643C201.303 72.255 202.688 71.4247 203.711 70.2734C204.755 69.0844 205.347 67.6478 205.489 65.9635L206.811 67.9005C206.67 69.5847 206.003 71.0905 204.81 72.4178C203.646 73.7366 201.972 74.7143 199.788 75.3509Z" fill="black"/>
<path d="M279.842 59.0823L283.053 35.4092L286.255 35.8435L284.835 46.3048L299.761 48.3296L301.18 37.8683L304.382 38.3026L301.17 61.9757L297.968 61.5414L299.388 51.0802L284.462 49.0554L283.043 59.5166L279.842 59.0823Z" fill="black"/>
<path d="M353.298 73.4451C351.018 72.4504 349.223 71.1044 347.911 69.4069C346.612 67.6817 345.839 65.7726 345.594 63.6797C345.36 61.559 345.717 59.4142 346.663 57.2454C347.609 55.0765 348.905 53.358 350.55 52.0899C352.223 50.834 354.073 50.0851 356.098 49.8432C358.163 49.5856 360.21 49.8996 362.24 50.7851C364.298 51.6827 365.913 52.9499 367.085 54.5867C368.298 56.2078 368.993 58.0666 369.171 60.163C369.36 62.2317 368.976 64.3643 368.018 66.561C367.957 66.7 367.877 66.8469 367.776 67.0016C367.715 67.1406 367.649 67.2935 367.576 67.4604L348.515 59.1455L349.479 56.9349L366.955 64.5584L365.405 64.9249C366.097 63.3399 366.362 61.7841 366.2 60.2574C366.079 58.715 365.586 57.3415 364.721 56.1369C363.857 54.9323 362.66 53.9965 361.13 53.3293C359.629 52.6743 358.128 52.4336 356.63 52.6072C355.131 52.7807 353.775 53.3476 352.561 54.3078C351.348 55.2679 350.39 56.5544 349.686 58.1671L349.486 58.6259C348.758 60.2943 348.477 61.9257 348.642 63.5201C348.847 65.0989 349.445 66.5348 350.437 67.8279C351.468 69.1052 352.832 70.1139 354.528 70.8538C355.863 71.436 357.203 71.7394 358.55 71.7641C359.924 71.8008 361.24 71.5145 362.499 70.9052L363.33 73.5516C361.847 74.2949 360.236 74.651 358.495 74.6198C356.783 74.6008 355.05 74.2092 353.298 73.4451Z" fill="black"/>
<path d="M391.988 89.6834L408.026 85.6102L407.007 86.835L407.095 71.1705L409.958 73.4179L409.831 86.3324L408.785 85.4539L421.271 82.2951L424.063 84.4864L408.712 88.3471L409.816 87.0148L409.744 103.617L406.844 101.342L407.035 87.6094L407.925 88.5392L394.852 91.9309L391.988 89.6834Z" fill="black"/>
<path d="M438.331 126.639L457.285 112.096L463.712 120.472C465.355 122.614 466.239 124.613 466.362 126.469C466.504 128.348 465.781 129.897 464.192 131.116C462.652 132.298 461.008 132.622 459.261 132.089C457.538 131.538 455.937 130.299 454.46 128.374L455.606 128.297C457.342 130.56 458.195 132.544 458.165 134.249C458.135 135.954 457.326 137.416 455.737 138.635C454.101 139.891 452.363 140.268 450.525 139.766C448.73 139.27 446.872 137.77 444.952 135.267L438.331 126.639ZM442.264 127.579L446.89 133.608C448.127 135.22 449.313 136.242 450.446 136.673C451.622 137.109 452.787 136.884 453.943 135.997C455.098 135.111 455.654 134.091 455.611 132.939C455.568 131.787 454.928 130.404 453.691 128.792L448.871 122.51L442.264 127.579ZM450.785 121.042L455.161 126.746C456.288 128.214 457.423 129.121 458.568 129.466C459.731 129.836 460.842 129.614 461.901 128.802C462.96 127.989 463.449 126.983 463.369 125.782C463.308 124.606 462.714 123.284 461.588 121.815L457.211 116.111L450.785 121.042Z" fill="black"/>
<path d="M477.8 184.942L482.662 182.885L483.405 182.423L491.535 178.984C493.407 178.192 494.622 177.053 495.179 175.566C495.747 174.106 495.594 172.343 494.72 170.275C494.117 168.85 493.306 167.596 492.288 166.511C491.269 165.427 490.18 164.603 489.019 164.04L490.673 161.76C492.096 162.475 493.39 163.509 494.554 164.861C495.747 166.201 496.71 167.737 497.442 169.47C498.648 172.32 498.863 174.814 498.088 176.954C497.353 179.109 495.546 180.796 492.668 182.013L479.006 187.792L477.8 184.942ZM474.382 177.445C473.685 175.796 473.342 174.245 473.353 172.791C473.403 171.353 473.768 170.112 474.446 169.068C475.152 168.012 476.134 167.218 477.391 166.686C478.537 166.201 479.683 166.029 480.829 166.17C482.015 166.327 483.148 166.902 484.227 167.895C485.345 168.904 486.348 170.457 487.234 172.552L490.443 180.138L488.221 181.077L485.048 173.576C484.15 171.452 483.147 170.131 482.038 169.612C480.941 169.12 479.833 169.111 478.716 169.584C477.458 170.116 476.659 171.03 476.319 172.327C475.978 173.624 476.18 175.153 476.924 176.913C477.633 178.589 478.619 179.869 479.882 180.751C481.184 181.65 482.68 182.071 484.369 182.015L482.599 183.554C480.91 183.61 479.337 183.123 477.88 182.092C476.434 181.089 475.269 179.54 474.382 177.445Z" fill="black"/>
<path d="M493.836 228.24L515.483 224.709L514.761 225.657L513.172 215.911L515.956 215.457L519.392 236.52L516.607 236.974L515.018 227.229L516.003 227.898L494.356 231.429L493.836 228.24Z" fill="black"/>
<path d="M499.518 289.819L512.071 280.931L513.453 283.73L499.223 293.63L499.518 289.819ZM500.868 272.352L524.687 274.193L524.438 277.414L500.619 275.573L500.868 272.352ZM511.313 275.395L514.08 275.609L513.488 283.277L510.72 283.063L511.313 275.395ZM511.617 283.862L512.302 280.903L523.365 291.297L523.095 294.79L511.617 283.862Z" fill="black"/>
<path d="M491.171 342.438L496.16 344.162L497.022 344.315L505.365 347.198C507.287 347.862 508.952 347.827 510.36 347.094C511.759 346.39 512.825 344.977 513.558 342.855C514.063 341.393 514.3 339.918 514.268 338.431C514.236 336.943 513.978 335.602 513.492 334.407L516.247 333.818C516.826 335.302 517.096 336.936 517.057 338.72C517.047 340.514 516.735 342.3 516.121 344.078C515.11 347.002 513.601 349.001 511.594 350.072C509.606 351.183 507.135 351.228 504.181 350.207L490.16 345.363L491.171 342.438ZM493.645 334.579C494.23 332.887 495.012 331.505 495.993 330.432C496.992 329.397 498.093 328.718 499.296 328.395C500.528 328.083 501.789 328.149 503.079 328.595C504.254 329.001 505.221 329.64 505.979 330.512C506.756 331.422 507.213 332.607 507.351 334.067C507.507 335.565 507.214 337.389 506.471 339.54L503.781 347.325L501.502 346.537L504.162 338.838C504.914 336.659 505.052 335.006 504.575 333.878C504.088 332.779 503.272 332.032 502.125 331.635C500.834 331.189 499.629 331.335 498.508 332.071C497.387 332.807 496.514 334.078 495.89 335.884C495.296 337.605 495.173 339.215 495.521 340.716C495.888 342.255 496.718 343.569 498.011 344.657L495.666 344.617C494.373 343.529 493.529 342.114 493.136 340.373C492.732 338.661 492.902 336.73 493.645 334.579Z" fill="black"/>
<path d="M453.114 416.765C454.699 415.009 456.505 413.779 458.532 413.074C460.56 412.413 462.605 412.298 464.668 412.73C466.753 413.182 468.673 414.201 470.429 415.787C472.208 417.393 473.417 419.2 474.056 421.208C474.695 423.216 474.778 425.253 474.303 427.317C473.808 429.405 472.767 431.326 471.181 433.082C469.819 434.591 468.296 435.689 466.613 436.376C464.929 437.063 463.187 437.227 461.386 436.867L461.787 433.979C463.236 434.185 464.582 434.03 465.823 433.516C467.064 433.002 468.162 432.216 469.118 431.158C470.257 429.897 470.991 428.495 471.32 426.954C471.672 425.432 471.595 423.911 471.088 422.391C470.581 420.87 469.629 419.479 468.234 418.219C466.838 416.958 465.358 416.153 463.793 415.803C462.229 415.453 460.697 415.52 459.196 416.005C457.718 416.509 456.41 417.392 455.272 418.653C454.316 419.711 453.645 420.884 453.26 422.171C452.874 423.458 452.846 424.801 453.175 426.202L450.343 426.894C449.825 425.159 449.811 423.409 450.301 421.645C450.814 419.9 451.751 418.274 453.114 416.765Z" fill="black"/>
<path d="M422.856 450.724L435.681 470.88L432.955 472.614L427.288 463.707L414.58 471.793L420.247 480.7L417.521 482.434L404.697 462.278L407.423 460.544L413.09 469.451L425.798 461.366L420.131 452.459L422.856 450.724Z" fill="black"/>
<path d="M353.021 488.803L354.536 493.859L354.915 494.648L357.45 503.105C358.033 505.052 359.034 506.383 360.451 507.098C361.84 507.822 363.61 507.862 365.76 507.217C367.242 506.773 368.577 506.104 369.766 505.209C370.955 504.315 371.892 503.321 372.578 502.229L374.666 504.121C373.799 505.458 372.631 506.631 371.16 507.642C369.698 508.682 368.067 509.471 366.265 510.011C363.301 510.9 360.797 510.842 358.755 509.839C356.692 508.874 355.212 506.895 354.315 503.901L350.057 489.691L353.021 488.803ZM360.846 486.221C362.56 485.707 364.139 485.534 365.584 485.703C367.007 485.91 368.201 486.407 369.166 487.195C370.139 488.012 370.822 489.074 371.213 490.382C371.57 491.573 371.617 492.731 371.352 493.856C371.067 495.018 370.372 496.081 369.267 497.046C368.143 498.048 366.49 498.875 364.311 499.528L356.421 501.893L355.729 499.582L363.532 497.244C365.74 496.582 367.163 495.729 367.799 494.683C368.407 493.646 368.537 492.546 368.188 491.383C367.796 490.076 366.974 489.182 365.722 488.702C364.47 488.222 362.928 488.257 361.098 488.805C359.354 489.328 357.975 490.169 356.961 491.328C355.926 492.525 355.344 493.966 355.216 495.651L353.878 493.724C354.007 492.039 354.662 490.528 355.845 489.192C356.999 487.864 358.666 486.874 360.846 486.221Z" fill="black"/>
</svg>
