<svg width="507" height="365" viewBox="0 0 507 365" fill="none" xmlns="http://www.w3.org/2000/svg">
<mask id="path-1-outside-1_1298_35" maskUnits="userSpaceOnUse" x="0" y="0" width="507" height="365" fill="black">
<rect fill="white" width="507" height="365"/>
<path d="M447.369 185.023C387.388 124.332 382.966 24.5736 397.471 13.5385C397.471 13.5385 409.852 -8.09161 440.009 5.46739C470.165 19.0264 505.777 101.301 506.137 184.77C506.498 268.605 459.249 340.916 439.979 357.121C420.71 373.326 398.953 357.298 398.953 357.298C380.985 348.857 391.308 249.949 447.369 185.023Z"/>
<path d="M447.369 185.023C387.388 124.332 382.966 24.5736 397.471 13.5385C397.471 13.5385 409.852 -8.09161 440.009 5.46739C470.165 19.0264 505.777 101.301 506.137 184.77C506.498 268.605 459.249 340.916 439.979 357.121C420.71 373.326 398.953 357.298 398.953 357.298C380.985 348.857 391.308 249.949 447.369 185.023Z"/>
<path d="M59.7701 185.023C119.751 124.332 124.173 24.5736 109.668 13.5385C109.668 13.5385 97.2872 -8.09161 67.1306 5.46739C36.9741 19.0264 1.36181 101.301 1.00206 184.77C0.640736 268.605 47.8903 340.916 67.1599 357.121C86.4296 373.326 108.187 357.298 108.187 357.298C126.154 348.857 115.831 249.949 59.7701 185.023Z"/>
<path d="M59.7701 185.023C119.751 124.332 124.173 24.5736 109.668 13.5385C109.668 13.5385 97.2872 -8.09161 67.1306 5.46739C36.9741 19.0264 1.36181 101.301 1.00206 184.77C0.640736 268.605 47.8903 340.916 67.1599 357.121C86.4296 373.326 108.187 357.298 108.187 357.298C126.154 348.857 115.831 249.949 59.7701 185.023Z"/>
<path d="M310.943 40.1441C328.281 46.2406 344.565 55.0323 358.914 66.5557C359.159 66.7505 359.404 66.9454 359.657 67.1461C367.77 73.6011 375.284 80.9024 380.879 89.6995C380.984 89.8629 381.089 90.0264 381.197 90.1947C382.822 92.7389 384.247 95.3551 385.557 98.0752C385.638 98.2406 385.718 98.4059 385.801 98.5762C391.834 111.062 392.584 125.243 388.217 138.395C386.879 142.231 385.272 146.064 382.991 149.437C382.675 149.92 382.36 150.403 382.045 150.886C381.7 151.412 381.355 151.937 381.009 152.462C380.843 152.716 380.676 152.97 380.504 153.232C372.84 164.852 363.429 173.751 349.826 177.645C349.453 177.756 349.081 177.866 348.709 177.977C346.067 178.746 343.408 179.316 340.695 179.763C340.479 179.799 340.263 179.836 340.041 179.874C332.434 181.135 324.547 180.846 317.039 179.115C316.856 179.075 316.673 179.035 316.485 178.993C314.154 178.438 311.915 177.582 309.671 176.754C309.451 176.673 309.231 176.592 309.005 176.509C305.433 175.184 302.016 173.728 298.735 171.775C298.515 171.644 298.294 171.512 298.066 171.377C284.589 163.263 272.643 151.107 264.399 137.702C264.228 137.425 264.058 137.148 263.882 136.863C261.169 132.252 258.732 127.146 257.31 121.974C257.154 121.416 256.984 120.863 256.812 120.31C255.651 116.507 254.794 112.551 254.428 108.585C251.134 111.462 249.499 117.507 249.196 121.722C248.928 128.41 252.05 135.248 255.84 140.609C255.963 140.784 256.086 140.958 256.212 141.138C258.686 144.602 261.527 147.711 264.411 150.831C265.112 151.595 265.801 152.369 266.487 153.147C270.523 157.718 274.824 162.048 279.165 166.325C282.861 169.971 286.431 173.738 289.997 177.511C290.558 178.104 291.12 178.695 291.682 179.286C294.019 181.755 296.26 184.302 298.474 186.882C298.934 187.417 299.397 187.95 299.86 188.483C301.391 190.255 302.828 192.078 304.215 193.966C305.039 195.088 305.885 196.188 306.756 197.274C309.896 201.194 312.698 205.341 315.251 209.668C315.416 209.944 315.581 210.22 315.751 210.505C317.652 213.718 319.456 216.985 321.137 220.319C321.439 220.916 321.746 221.511 322.059 222.103C323.295 224.452 324.41 226.854 325.518 229.266C325.598 229.439 325.678 229.613 325.76 229.791C326.595 231.605 327.405 233.419 328.094 235.295C328.414 236.16 328.771 237.008 329.126 237.86C329.899 239.749 330.585 241.658 331.216 243.6C331.286 243.814 331.356 244.029 331.429 244.25C332.35 247.07 333.204 249.89 333.9 252.776C334.219 254.09 334.592 255.367 335.012 256.653C340.53 273.889 339.408 293.96 333.671 310.979C333.577 311.266 333.483 311.552 333.386 311.848C329.192 323.917 321.405 335.235 309.768 341.005C301.952 344.703 294.544 345.829 285.946 345.379C284.316 345.295 282.688 345.236 281.057 345.203C271.79 345.006 262.835 343.667 253.892 341.219C253.698 341.166 253.504 341.113 253.304 341.058C248.969 339.864 244.756 338.38 240.549 336.799C239.956 336.577 239.362 336.355 238.768 336.134C232.819 333.916 226.947 331.592 221.256 328.765C220.664 328.471 220.071 328.18 219.477 327.89C201.852 319.238 185.183 308.699 169.692 296.636C169.457 296.453 169.457 296.453 169.218 296.266C165.542 293.4 161.984 290.412 158.49 287.327C157.159 286.151 155.812 284.994 154.46 283.842C148.773 278.989 143.102 274.105 138.097 268.528C137.558 267.932 137.01 267.343 136.463 266.753C130.353 260.135 125.13 252.959 120.81 245.051C120.663 244.783 120.517 244.516 120.366 244.24C118.546 240.838 116.939 237.358 115.804 233.664C115.747 233.483 115.69 233.302 115.632 233.115C112.559 223.272 112.398 212.693 117.083 203.296C121.163 195.492 127.618 189.734 135.11 185.307C135.276 185.209 135.441 185.11 135.612 185.009C139.632 182.642 143.843 180.571 148.306 179.2C148.477 179.146 148.648 179.092 148.824 179.036C164.863 173.977 181.813 174.929 197.939 178.933C198.129 178.98 198.318 179.027 198.514 179.075C203.155 180.238 207.683 181.713 212.167 183.377C212.385 183.458 212.602 183.538 212.827 183.621C232.823 191.052 252.622 202.059 264.726 220.19C265.021 220.629 265.021 220.629 265.321 221.077C269.449 227.363 272.713 234.158 275.035 241.31C275.136 241.62 275.136 241.62 275.239 241.936C275.299 242.123 275.359 242.309 275.421 242.5C275.597 243.032 275.597 243.032 275.909 243.686C279.074 235.712 279.205 229.444 276.051 221.484C275.965 221.264 275.879 221.043 275.791 220.816C273.332 215.003 268.885 210.043 264.705 205.443C264.549 205.271 264.394 205.1 264.233 204.923C255.048 194.907 242.938 187.159 230.626 181.581C230.452 181.5 230.279 181.42 230.1 181.337C227.522 180.146 224.872 179.131 222.214 178.133C221.855 177.998 221.495 177.862 221.137 177.725C215.024 175.403 208.696 173.603 202.394 171.875C202.194 171.82 201.994 171.765 201.788 171.709C201.382 171.597 200.976 171.486 200.57 171.375C200.368 171.319 200.166 171.264 199.957 171.207C199.653 171.123 199.653 171.123 199.343 171.038C192.575 169.18 185.868 167.24 179.285 164.798C179.01 164.697 178.735 164.596 178.452 164.492C173.71 162.739 169.062 160.614 164.899 157.713C164.676 157.558 164.453 157.403 164.223 157.243C157.653 152.557 152.99 146.466 149.425 139.293C149.057 138.56 148.67 137.847 148.266 137.135C142.273 126.066 141.449 112.294 144.952 100.338C149.655 84.9183 161.001 73.1328 173.283 63.2875C173.507 63.1063 173.732 62.9252 173.963 62.7385C180.045 57.8469 186.53 53.4456 193.313 49.5905C193.471 49.4999 193.629 49.4093 193.791 49.3159C198.011 46.8947 202.35 44.7578 206.759 42.709C206.931 42.6292 207.102 42.5494 207.278 42.4672C209.259 41.5456 211.245 40.6762 213.295 39.9216C213.659 39.7816 214.022 39.6412 214.385 39.5002C217.383 38.3535 220.419 37.3735 223.497 36.4654C223.735 36.3951 223.973 36.3247 224.219 36.2522C230.084 34.5356 235.988 33.3252 242.012 32.3239C242.229 32.2876 242.447 32.2513 242.671 32.214C252.405 30.628 264.774 29.4437 274.391 32.0342C276.023 32.4529 277.688 32.5901 279.361 32.7744C290.109 34.034 300.733 36.5783 310.943 40.1441Z"/>
</mask>
<path d="M447.369 185.023C387.388 124.332 382.966 24.5736 397.471 13.5385C397.471 13.5385 409.852 -8.09161 440.009 5.46739C470.165 19.0264 505.777 101.301 506.137 184.77C506.498 268.605 459.249 340.916 439.979 357.121C420.71 373.326 398.953 357.298 398.953 357.298C380.985 348.857 391.308 249.949 447.369 185.023Z" fill="#F2F1F1"/>
<path d="M447.369 185.023C387.388 124.332 382.966 24.5736 397.471 13.5385C397.471 13.5385 409.852 -8.09161 440.009 5.46739C470.165 19.0264 505.777 101.301 506.137 184.77C506.498 268.605 459.249 340.916 439.979 357.121C420.71 373.326 398.953 357.298 398.953 357.298C380.985 348.857 391.308 249.949 447.369 185.023Z" fill="#F2F1F1"/>
<path d="M59.7701 185.023C119.751 124.332 124.173 24.5736 109.668 13.5385C109.668 13.5385 97.2872 -8.09161 67.1306 5.46739C36.9741 19.0264 1.36181 101.301 1.00206 184.77C0.640736 268.605 47.8903 340.916 67.1599 357.121C86.4296 373.326 108.187 357.298 108.187 357.298C126.154 348.857 115.831 249.949 59.7701 185.023Z" fill="#F2F1F1"/>
<path d="M59.7701 185.023C119.751 124.332 124.173 24.5736 109.668 13.5385C109.668 13.5385 97.2872 -8.09161 67.1306 5.46739C36.9741 19.0264 1.36181 101.301 1.00206 184.77C0.640736 268.605 47.8903 340.916 67.1599 357.121C86.4296 373.326 108.187 357.298 108.187 357.298C126.154 348.857 115.831 249.949 59.7701 185.023Z" fill="#F2F1F1"/>
<path d="M310.943 40.1441C328.281 46.2406 344.565 55.0323 358.914 66.5557C359.159 66.7505 359.404 66.9454 359.657 67.1461C367.77 73.6011 375.284 80.9024 380.879 89.6995C380.984 89.8629 381.089 90.0264 381.197 90.1947C382.822 92.7389 384.247 95.3551 385.557 98.0752C385.638 98.2406 385.718 98.4059 385.801 98.5762C391.834 111.062 392.584 125.243 388.217 138.395C386.879 142.231 385.272 146.064 382.991 149.437C382.675 149.92 382.36 150.403 382.045 150.886C381.7 151.412 381.355 151.937 381.009 152.462C380.843 152.716 380.676 152.97 380.504 153.232C372.84 164.852 363.429 173.751 349.826 177.645C349.453 177.756 349.081 177.866 348.709 177.977C346.067 178.746 343.408 179.316 340.695 179.763C340.479 179.799 340.263 179.836 340.041 179.874C332.434 181.135 324.547 180.846 317.039 179.115C316.856 179.075 316.673 179.035 316.485 178.993C314.154 178.438 311.915 177.582 309.671 176.754C309.451 176.673 309.231 176.592 309.005 176.509C305.433 175.184 302.016 173.728 298.735 171.775C298.515 171.644 298.294 171.512 298.066 171.377C284.589 163.263 272.643 151.107 264.399 137.702C264.228 137.425 264.058 137.148 263.882 136.863C261.169 132.252 258.732 127.146 257.31 121.974C257.154 121.416 256.984 120.863 256.812 120.31C255.651 116.507 254.794 112.551 254.428 108.585C251.134 111.462 249.499 117.507 249.196 121.722C248.928 128.41 252.05 135.248 255.84 140.609C255.963 140.784 256.086 140.958 256.212 141.138C258.686 144.602 261.527 147.711 264.411 150.831C265.112 151.595 265.801 152.369 266.487 153.147C270.523 157.718 274.824 162.048 279.165 166.325C282.861 169.971 286.431 173.738 289.997 177.511C290.558 178.104 291.12 178.695 291.682 179.286C294.019 181.755 296.26 184.302 298.474 186.882C298.934 187.417 299.397 187.95 299.86 188.483C301.391 190.255 302.828 192.078 304.215 193.966C305.039 195.088 305.885 196.188 306.756 197.274C309.896 201.194 312.698 205.341 315.251 209.668C315.416 209.944 315.581 210.22 315.751 210.505C317.652 213.718 319.456 216.985 321.137 220.319C321.439 220.916 321.746 221.511 322.059 222.103C323.295 224.452 324.41 226.854 325.518 229.266C325.598 229.439 325.678 229.613 325.76 229.791C326.595 231.605 327.405 233.419 328.094 235.295C328.414 236.16 328.771 237.008 329.126 237.86C329.899 239.749 330.585 241.658 331.216 243.6C331.286 243.814 331.356 244.029 331.429 244.25C332.35 247.07 333.204 249.89 333.9 252.776C334.219 254.09 334.592 255.367 335.012 256.653C340.53 273.889 339.408 293.96 333.671 310.979C333.577 311.266 333.483 311.552 333.386 311.848C329.192 323.917 321.405 335.235 309.768 341.005C301.952 344.703 294.544 345.829 285.946 345.379C284.316 345.295 282.688 345.236 281.057 345.203C271.79 345.006 262.835 343.667 253.892 341.219C253.698 341.166 253.504 341.113 253.304 341.058C248.969 339.864 244.756 338.38 240.549 336.799C239.956 336.577 239.362 336.355 238.768 336.134C232.819 333.916 226.947 331.592 221.256 328.765C220.664 328.471 220.071 328.18 219.477 327.89C201.852 319.238 185.183 308.699 169.692 296.636C169.457 296.453 169.457 296.453 169.218 296.266C165.542 293.4 161.984 290.412 158.49 287.327C157.159 286.151 155.812 284.994 154.46 283.842C148.773 278.989 143.102 274.105 138.097 268.528C137.558 267.932 137.01 267.343 136.463 266.753C130.353 260.135 125.13 252.959 120.81 245.051C120.663 244.783 120.517 244.516 120.366 244.24C118.546 240.838 116.939 237.358 115.804 233.664C115.747 233.483 115.69 233.302 115.632 233.115C112.559 223.272 112.398 212.693 117.083 203.296C121.163 195.492 127.618 189.734 135.11 185.307C135.276 185.209 135.441 185.11 135.612 185.009C139.632 182.642 143.843 180.571 148.306 179.2C148.477 179.146 148.648 179.092 148.824 179.036C164.863 173.977 181.813 174.929 197.939 178.933C198.129 178.98 198.318 179.027 198.514 179.075C203.155 180.238 207.683 181.713 212.167 183.377C212.385 183.458 212.602 183.538 212.827 183.621C232.823 191.052 252.622 202.059 264.726 220.19C265.021 220.629 265.021 220.629 265.321 221.077C269.449 227.363 272.713 234.158 275.035 241.31C275.136 241.62 275.136 241.62 275.239 241.936C275.299 242.123 275.359 242.309 275.421 242.5C275.597 243.032 275.597 243.032 275.909 243.686C279.074 235.712 279.205 229.444 276.051 221.484C275.965 221.264 275.879 221.043 275.791 220.816C273.332 215.003 268.885 210.043 264.705 205.443C264.549 205.271 264.394 205.1 264.233 204.923C255.048 194.907 242.938 187.159 230.626 181.581C230.452 181.5 230.279 181.42 230.1 181.337C227.522 180.146 224.872 179.131 222.214 178.133C221.855 177.998 221.495 177.862 221.137 177.725C215.024 175.403 208.696 173.603 202.394 171.875C202.194 171.82 201.994 171.765 201.788 171.709C201.382 171.597 200.976 171.486 200.57 171.375C200.368 171.319 200.166 171.264 199.957 171.207C199.653 171.123 199.653 171.123 199.343 171.038C192.575 169.18 185.868 167.24 179.285 164.798C179.01 164.697 178.735 164.596 178.452 164.492C173.71 162.739 169.062 160.614 164.899 157.713C164.676 157.558 164.453 157.403 164.223 157.243C157.653 152.557 152.99 146.466 149.425 139.293C149.057 138.56 148.67 137.847 148.266 137.135C142.273 126.066 141.449 112.294 144.952 100.338C149.655 84.9183 161.001 73.1328 173.283 63.2875C173.507 63.1063 173.732 62.9252 173.963 62.7385C180.045 57.8469 186.53 53.4456 193.313 49.5905C193.471 49.4999 193.629 49.4093 193.791 49.3159C198.011 46.8947 202.35 44.7578 206.759 42.709C206.931 42.6292 207.102 42.5494 207.278 42.4672C209.259 41.5456 211.245 40.6762 213.295 39.9216C213.659 39.7816 214.022 39.6412 214.385 39.5002C217.383 38.3535 220.419 37.3735 223.497 36.4654C223.735 36.3951 223.973 36.3247 224.219 36.2522C230.084 34.5356 235.988 33.3252 242.012 32.3239C242.229 32.2876 242.447 32.2513 242.671 32.214C252.405 30.628 264.774 29.4437 274.391 32.0342C276.023 32.4529 277.688 32.5901 279.361 32.7744C290.109 34.034 300.733 36.5783 310.943 40.1441Z" fill="#F2F1F1"/>
<path d="M447.369 185.023C387.388 124.332 382.966 24.5736 397.471 13.5385C397.471 13.5385 409.852 -8.09161 440.009 5.46739C470.165 19.0264 505.777 101.301 506.137 184.77C506.498 268.605 459.249 340.916 439.979 357.121C420.71 373.326 398.953 357.298 398.953 357.298C380.985 348.857 391.308 249.949 447.369 185.023Z" stroke="#F2F1F1" stroke-width="2" mask="url(#path-1-outside-1_1298_35)"/>
<path d="M447.369 185.023C387.388 124.332 382.966 24.5736 397.471 13.5385C397.471 13.5385 409.852 -8.09161 440.009 5.46739C470.165 19.0264 505.777 101.301 506.137 184.77C506.498 268.605 459.249 340.916 439.979 357.121C420.71 373.326 398.953 357.298 398.953 357.298C380.985 348.857 391.308 249.949 447.369 185.023Z" stroke="#F2F1F1" stroke-width="2" mask="url(#path-1-outside-1_1298_35)"/>
<path d="M59.7701 185.023C119.751 124.332 124.173 24.5736 109.668 13.5385C109.668 13.5385 97.2872 -8.09161 67.1306 5.46739C36.9741 19.0264 1.36181 101.301 1.00206 184.77C0.640736 268.605 47.8903 340.916 67.1599 357.121C86.4296 373.326 108.187 357.298 108.187 357.298C126.154 348.857 115.831 249.949 59.7701 185.023Z" stroke="#F2F1F1" stroke-width="2" mask="url(#path-1-outside-1_1298_35)"/>
<path d="M59.7701 185.023C119.751 124.332 124.173 24.5736 109.668 13.5385C109.668 13.5385 97.2872 -8.09161 67.1306 5.46739C36.9741 19.0264 1.36181 101.301 1.00206 184.77C0.640736 268.605 47.8903 340.916 67.1599 357.121C86.4296 373.326 108.187 357.298 108.187 357.298C126.154 348.857 115.831 249.949 59.7701 185.023Z" stroke="#F2F1F1" stroke-width="2" mask="url(#path-1-outside-1_1298_35)"/>
<path d="M310.943 40.1441C328.281 46.2406 344.565 55.0323 358.914 66.5557C359.159 66.7505 359.404 66.9454 359.657 67.1461C367.77 73.6011 375.284 80.9024 380.879 89.6995C380.984 89.8629 381.089 90.0264 381.197 90.1947C382.822 92.7389 384.247 95.3551 385.557 98.0752C385.638 98.2406 385.718 98.4059 385.801 98.5762C391.834 111.062 392.584 125.243 388.217 138.395C386.879 142.231 385.272 146.064 382.991 149.437C382.675 149.92 382.36 150.403 382.045 150.886C381.7 151.412 381.355 151.937 381.009 152.462C380.843 152.716 380.676 152.97 380.504 153.232C372.84 164.852 363.429 173.751 349.826 177.645C349.453 177.756 349.081 177.866 348.709 177.977C346.067 178.746 343.408 179.316 340.695 179.763C340.479 179.799 340.263 179.836 340.041 179.874C332.434 181.135 324.547 180.846 317.039 179.115C316.856 179.075 316.673 179.035 316.485 178.993C314.154 178.438 311.915 177.582 309.671 176.754C309.451 176.673 309.231 176.592 309.005 176.509C305.433 175.184 302.016 173.728 298.735 171.775C298.515 171.644 298.294 171.512 298.066 171.377C284.589 163.263 272.643 151.107 264.399 137.702C264.228 137.425 264.058 137.148 263.882 136.863C261.169 132.252 258.732 127.146 257.31 121.974C257.154 121.416 256.984 120.863 256.812 120.31C255.651 116.507 254.794 112.551 254.428 108.585C251.134 111.462 249.499 117.507 249.196 121.722C248.928 128.41 252.05 135.248 255.84 140.609C255.963 140.784 256.086 140.958 256.212 141.138C258.686 144.602 261.527 147.711 264.411 150.831C265.112 151.595 265.801 152.369 266.487 153.147C270.523 157.718 274.824 162.048 279.165 166.325C282.861 169.971 286.431 173.738 289.997 177.511C290.558 178.104 291.12 178.695 291.682 179.286C294.019 181.755 296.26 184.302 298.474 186.882C298.934 187.417 299.397 187.95 299.86 188.483C301.391 190.255 302.828 192.078 304.215 193.966C305.039 195.088 305.885 196.188 306.756 197.274C309.896 201.194 312.698 205.341 315.251 209.668C315.416 209.944 315.581 210.22 315.751 210.505C317.652 213.718 319.456 216.985 321.137 220.319C321.439 220.916 321.746 221.511 322.059 222.103C323.295 224.452 324.41 226.854 325.518 229.266C325.598 229.439 325.678 229.613 325.76 229.791C326.595 231.605 327.405 233.419 328.094 235.295C328.414 236.16 328.771 237.008 329.126 237.86C329.899 239.749 330.585 241.658 331.216 243.6C331.286 243.814 331.356 244.029 331.429 244.25C332.35 247.07 333.204 249.89 333.9 252.776C334.219 254.09 334.592 255.367 335.012 256.653C340.53 273.889 339.408 293.96 333.671 310.979C333.577 311.266 333.483 311.552 333.386 311.848C329.192 323.917 321.405 335.235 309.768 341.005C301.952 344.703 294.544 345.829 285.946 345.379C284.316 345.295 282.688 345.236 281.057 345.203C271.79 345.006 262.835 343.667 253.892 341.219C253.698 341.166 253.504 341.113 253.304 341.058C248.969 339.864 244.756 338.38 240.549 336.799C239.956 336.577 239.362 336.355 238.768 336.134C232.819 333.916 226.947 331.592 221.256 328.765C220.664 328.471 220.071 328.18 219.477 327.89C201.852 319.238 185.183 308.699 169.692 296.636C169.457 296.453 169.457 296.453 169.218 296.266C165.542 293.4 161.984 290.412 158.49 287.327C157.159 286.151 155.812 284.994 154.46 283.842C148.773 278.989 143.102 274.105 138.097 268.528C137.558 267.932 137.01 267.343 136.463 266.753C130.353 260.135 125.13 252.959 120.81 245.051C120.663 244.783 120.517 244.516 120.366 244.24C118.546 240.838 116.939 237.358 115.804 233.664C115.747 233.483 115.69 233.302 115.632 233.115C112.559 223.272 112.398 212.693 117.083 203.296C121.163 195.492 127.618 189.734 135.11 185.307C135.276 185.209 135.441 185.11 135.612 185.009C139.632 182.642 143.843 180.571 148.306 179.2C148.477 179.146 148.648 179.092 148.824 179.036C164.863 173.977 181.813 174.929 197.939 178.933C198.129 178.98 198.318 179.027 198.514 179.075C203.155 180.238 207.683 181.713 212.167 183.377C212.385 183.458 212.602 183.538 212.827 183.621C232.823 191.052 252.622 202.059 264.726 220.19C265.021 220.629 265.021 220.629 265.321 221.077C269.449 227.363 272.713 234.158 275.035 241.31C275.136 241.62 275.136 241.62 275.239 241.936C275.299 242.123 275.359 242.309 275.421 242.5C275.597 243.032 275.597 243.032 275.909 243.686C279.074 235.712 279.205 229.444 276.051 221.484C275.965 221.264 275.879 221.043 275.791 220.816C273.332 215.003 268.885 210.043 264.705 205.443C264.549 205.271 264.394 205.1 264.233 204.923C255.048 194.907 242.938 187.159 230.626 181.581C230.452 181.5 230.279 181.42 230.1 181.337C227.522 180.146 224.872 179.131 222.214 178.133C221.855 177.998 221.495 177.862 221.137 177.725C215.024 175.403 208.696 173.603 202.394 171.875C202.194 171.82 201.994 171.765 201.788 171.709C201.382 171.597 200.976 171.486 200.57 171.375C200.368 171.319 200.166 171.264 199.957 171.207C199.653 171.123 199.653 171.123 199.343 171.038C192.575 169.18 185.868 167.24 179.285 164.798C179.01 164.697 178.735 164.596 178.452 164.492C173.71 162.739 169.062 160.614 164.899 157.713C164.676 157.558 164.453 157.403 164.223 157.243C157.653 152.557 152.99 146.466 149.425 139.293C149.057 138.56 148.67 137.847 148.266 137.135C142.273 126.066 141.449 112.294 144.952 100.338C149.655 84.9183 161.001 73.1328 173.283 63.2875C173.507 63.1063 173.732 62.9252 173.963 62.7385C180.045 57.8469 186.53 53.4456 193.313 49.5905C193.471 49.4999 193.629 49.4093 193.791 49.3159C198.011 46.8947 202.35 44.7578 206.759 42.709C206.931 42.6292 207.102 42.5494 207.278 42.4672C209.259 41.5456 211.245 40.6762 213.295 39.9216C213.659 39.7816 214.022 39.6412 214.385 39.5002C217.383 38.3535 220.419 37.3735 223.497 36.4654C223.735 36.3951 223.973 36.3247 224.219 36.2522C230.084 34.5356 235.988 33.3252 242.012 32.3239C242.229 32.2876 242.447 32.2513 242.671 32.214C252.405 30.628 264.774 29.4437 274.391 32.0342C276.023 32.4529 277.688 32.5901 279.361 32.7744C290.109 34.034 300.733 36.5783 310.943 40.1441Z" stroke="#F2F1F1" stroke-width="2" mask="url(#path-1-outside-1_1298_35)"/>
</svg>
