<svg width="552" height="556" viewBox="0 0 552 556" fill="none" xmlns="http://www.w3.org/2000/svg">
<path d="M272.904 494.761L269.097 521.292L265.509 520.777L268.866 497.379L252.645 495.052L249.287 518.449L245.699 517.935L249.506 491.404L272.904 494.761ZM249.517 484.855L248.553 491.576L247.687 491.143L253.094 491.919L252.645 495.052L244.761 493.921L246.132 484.37L249.517 484.855Z" fill="black"/>
<path d="M210.801 484.471L199.993 508.998L189.155 504.222C186.383 503.001 184.436 501.51 183.314 499.752C182.162 497.979 182.038 496.065 182.944 494.009C183.822 492.016 185.265 490.811 187.271 490.393C189.264 490.007 191.506 490.362 193.997 491.46L192.911 492.153C189.983 490.863 188.075 489.371 187.185 487.677C186.295 485.983 186.303 484.108 187.208 482.053C188.142 479.935 189.648 478.627 191.726 478.13C193.76 477.65 196.397 478.124 199.636 479.551L210.801 484.471ZM206.425 485.667L198.623 482.229C196.536 481.31 194.82 480.944 193.472 481.131C192.08 481.336 191.055 482.186 190.396 483.681C189.737 485.176 189.74 486.479 190.403 487.589C191.067 488.7 192.442 489.715 194.529 490.634L202.658 494.216L206.425 485.667ZM201.567 496.692L194.185 493.44C192.285 492.603 190.679 492.323 189.367 492.6C188.024 492.863 187.05 493.68 186.446 495.05C185.842 496.421 185.903 497.675 186.629 498.813C187.324 499.938 188.621 500.918 190.521 501.756L197.902 505.008L201.567 496.692Z" fill="black"/>
<path d="M152.657 454.008C154.84 455.746 156.396 457.726 157.325 459.946C158.233 462.192 158.517 464.485 158.177 466.825C157.815 469.191 156.807 471.412 155.153 473.488C153.499 475.565 151.596 477.052 149.445 477.949C147.268 478.826 145.047 479.101 142.782 478.776C140.469 478.457 138.341 477.523 136.397 475.975C134.427 474.406 133.044 472.564 132.248 470.451C131.404 468.342 131.189 466.126 131.604 463.802C131.998 461.505 133.033 459.305 134.708 457.202C134.814 457.069 134.944 456.933 135.098 456.795C135.204 456.662 135.32 456.515 135.448 456.355L153.696 470.892L152.01 473.009L135.279 459.681L137.065 459.733C135.856 461.25 135.118 462.86 134.851 464.561C134.535 466.268 134.672 467.899 135.26 469.456C135.848 471.012 136.874 472.373 138.338 473.539C139.775 474.685 141.331 475.38 143.006 475.627C144.681 475.873 146.315 475.652 147.908 474.963C149.502 474.274 150.913 473.157 152.143 471.613L152.493 471.174C153.765 469.577 154.543 467.89 154.827 466.114C155.062 464.344 154.83 462.614 154.13 460.925C153.382 459.242 152.197 457.753 150.573 456.46C149.295 455.442 147.93 454.724 146.478 454.307C145 453.869 143.49 453.798 141.949 454.094L141.815 450.984C143.637 450.608 145.487 450.69 147.365 451.228C149.216 451.745 150.98 452.672 152.657 454.008Z" fill="black"/>
<path d="M116.012 421.991L96.654 437.183L96.8498 435.861L103.689 444.576L101.199 446.53L86.4173 427.694L88.9074 425.74L95.7467 434.455L94.4163 434.331L113.774 419.14L116.012 421.991Z" fill="black"/>
<path d="M83.513 373.773L78.1208 376.222L77.301 376.763L68.283 380.858C66.2067 381.8 64.8781 383.114 64.2972 384.798C63.7023 386.451 63.9255 388.425 64.9668 390.718C65.6845 392.298 66.6304 393.682 67.8046 394.868C68.9787 396.054 70.2248 396.946 71.5428 397.544L69.7546 400.15C68.1381 399.389 66.6569 398.267 65.311 396.785C63.9342 395.317 62.8095 393.623 61.937 391.701C60.5017 388.54 60.1872 385.749 60.9937 383.327C61.7551 380.888 63.7318 378.943 66.9237 377.494L82.0777 370.613L83.513 373.773ZM87.5661 382.082C88.3963 383.91 88.8267 385.64 88.857 387.271C88.8424 388.885 88.47 390.287 87.74 391.478C86.9791 392.684 85.9013 393.603 84.5068 394.236C83.2362 394.813 81.9559 395.039 80.6659 394.915C79.3308 394.774 78.0438 394.162 76.8048 393.08C75.5208 391.981 74.351 390.269 73.2956 387.945L69.475 379.531L71.9386 378.413L75.7171 386.733C76.7866 389.088 77.9507 390.541 79.2096 391.091C80.4544 391.609 81.6966 391.587 82.9362 391.024C84.3308 390.391 85.2001 389.342 85.5443 387.878C85.8885 386.413 85.6173 384.705 84.7308 382.752C83.8864 380.893 82.7433 379.487 81.3015 378.534C79.8146 377.565 78.1247 377.136 76.2318 377.248L78.1718 375.47C80.0647 375.358 81.8433 375.859 83.5076 376.972C85.1578 378.054 86.5107 379.757 87.5661 382.082Z" fill="black"/>
<path d="M61.349 308.131L34.5473 308.338L34.5193 304.713L58.1559 304.531L58.0293 288.143L34.3928 288.326L34.3648 284.701L61.1665 284.494L61.349 308.131ZM67.6429 283.525L60.8531 283.578L61.1523 282.656L61.1945 288.119L58.0293 288.143L57.9679 280.179L67.6165 280.105L67.6429 283.525Z" fill="black"/>
<path d="M62.2924 244.156L36.4498 237.047L39.5911 225.627C40.3944 222.707 41.5842 220.563 43.1603 219.196C44.7454 217.797 46.6209 217.395 48.7868 217.991C50.887 218.568 52.2902 219.819 52.9965 221.743C53.6699 223.658 53.6456 225.928 52.9234 228.553L52.0793 227.58C52.9278 224.495 54.1249 222.389 55.6707 221.261C57.2164 220.133 59.0722 219.867 61.2381 220.463C63.4695 221.076 64.9831 222.375 65.7788 224.359C66.5507 226.301 66.4672 228.978 65.5285 232.391L62.2924 244.156ZM60.4701 240.001L62.7313 231.781C63.3361 229.582 63.4474 227.83 63.0651 226.525C62.6591 225.178 61.6685 224.287 60.0934 223.854C58.5182 223.421 57.2297 223.614 56.2279 224.432C55.2262 225.251 54.4229 226.76 53.8181 228.958L51.4621 237.523L60.4701 240.001ZM48.8532 236.806L50.9926 229.028C51.5432 227.027 51.5855 225.397 51.1196 224.139C50.6627 222.849 49.7123 222.005 48.2684 221.608C46.8245 221.21 45.5927 221.454 44.5728 222.338C43.562 223.19 42.7813 224.616 42.2307 226.618L40.0914 234.396L48.8532 236.806Z" fill="black"/>
<path d="M83.5747 181.637C82.1818 184.055 80.4575 185.89 78.4016 187.141C76.3162 188.375 74.0915 188.999 71.7274 189.012C69.3338 189.008 66.9868 188.344 64.6863 187.019C62.3859 185.694 60.6311 184.035 59.422 182.043C58.23 180.021 57.6251 177.866 57.6075 175.578C57.5774 173.243 58.1824 170.999 59.4223 168.846C60.6793 166.664 62.2932 165.021 64.2642 163.917C66.2226 162.767 68.3817 162.223 70.7413 162.286C73.0714 162.332 75.4014 163.026 77.7314 164.368C77.8789 164.453 78.0326 164.561 78.1925 164.692C78.34 164.777 78.5022 164.871 78.6792 164.973L67.0354 185.19L64.6907 183.84L75.3663 165.303L75.5819 167.077C73.9008 166.109 72.1991 165.62 70.4767 165.61C68.7419 165.553 67.1491 165.932 65.6984 166.746C64.2476 167.56 63.0552 168.778 62.1209 170.4C61.2037 171.993 60.7486 173.636 60.7555 175.329C60.7625 177.021 61.2257 178.604 62.1452 180.076C63.0648 181.548 64.3798 182.777 66.0904 183.762L66.5771 184.043C68.3467 185.062 70.1306 185.578 71.9289 185.593C73.7147 185.561 75.3902 185.073 76.9554 184.128C78.508 183.137 79.8024 181.742 80.8385 179.943C81.6538 178.527 82.159 177.071 82.3541 175.573C82.5661 174.045 82.4107 172.542 81.8881 171.062L84.9422 170.465C85.5864 172.211 85.7828 174.052 85.5314 175.989C85.297 177.896 84.6448 179.779 83.5747 181.637Z" fill="black"/>
<path d="M109.825 140.53L91.9879 123.578L93.324 123.58L85.6922 131.61L83.3978 129.43L99.8924 112.074L102.187 114.255L94.555 122.285L94.4849 120.951L112.322 137.902L109.825 140.53Z" fill="black"/>
<path d="M152.565 101.534L149.331 96.573L148.673 95.844L143.264 87.5469C142.019 85.6366 140.52 84.5213 138.768 84.2011C137.044 83.8623 135.127 84.3806 133.017 85.7559C131.563 86.7038 130.338 87.8475 129.342 89.1871C128.347 90.5268 127.653 91.8931 127.261 93.2862L124.415 91.9116C124.923 90.1987 125.809 88.5653 127.071 87.0113C128.314 85.4288 129.82 84.0614 131.588 82.9091C134.496 81.0134 137.208 80.2815 139.724 80.7134C142.25 81.0983 144.47 82.7591 146.385 85.6958L155.473 99.6384L152.565 101.534ZM144.963 106.794C143.281 107.89 141.636 108.577 140.028 108.853C138.43 109.082 136.988 108.925 135.7 108.383C134.394 107.813 133.322 106.886 132.486 105.603C131.724 104.434 131.307 103.202 131.236 101.908C131.174 100.567 131.585 99.2026 132.467 97.8146C133.36 96.3795 134.876 94.965 137.014 93.5711L144.755 88.5252L146.233 90.7919L138.577 95.7821C136.41 97.1946 135.15 98.5645 134.796 99.8919C134.471 101.201 134.681 102.425 135.424 103.566C136.26 104.849 137.428 105.55 138.928 105.67C140.428 105.789 142.076 105.263 143.872 104.092C145.583 102.977 146.8 101.635 147.525 100.066C148.259 98.4499 148.428 96.7147 148.032 94.8603L150.082 96.5099C150.478 98.3643 150.251 100.198 149.402 102.011C148.581 103.806 147.101 105.4 144.963 106.794Z" fill="black"/>
<path d="M212.791 69.7826L208.577 43.3133L212.157 42.7435L215.873 66.0869L232.057 63.5108L228.341 40.1674L231.921 39.5976L236.134 66.0669L212.791 69.7826ZM238.061 72.3254L236.993 65.6199L237.949 65.7779L232.554 66.6367L232.057 63.5108L239.922 62.2588L241.439 71.7877L238.061 72.3254Z" fill="black"/>
<path d="M275.858 61.1876L278.95 34.5641L290.715 35.9305C293.724 36.28 296.024 37.1296 297.614 38.4793C299.239 39.833 299.921 41.6255 299.662 43.8568C299.411 46.0205 298.388 47.5977 296.594 48.5886C294.804 49.5456 292.557 49.8671 289.852 49.553L290.686 48.5705C293.864 48.9396 296.128 49.8022 297.478 51.1582C298.828 52.5142 299.373 54.3079 299.114 56.5392C298.847 58.8381 297.794 60.5318 295.954 61.6201C294.153 62.6786 291.494 63.0037 287.978 62.5953L275.858 61.1876ZM279.686 58.7541L288.155 59.7378C290.42 60.0009 292.169 59.8442 293.401 59.2677C294.67 58.6614 295.4 57.5468 295.588 55.9241C295.777 54.3013 295.39 53.0572 294.428 52.1917C293.467 51.3262 291.853 50.7619 289.588 50.4988L280.764 49.4739L279.686 58.7541ZM281.077 46.7862L289.089 47.7169C291.151 47.9564 292.768 47.7502 293.941 47.0983C295.147 46.4503 295.836 45.3825 296.009 43.895C296.181 42.4074 295.753 41.227 294.724 40.3536C293.728 39.4842 292.2 38.9298 290.137 38.6902L282.125 37.7596L281.077 46.7862Z" fill="black"/>
<path d="M341.452 72.793C338.854 71.7734 336.784 70.3396 335.242 68.4916C333.713 66.6118 332.767 64.5039 332.404 62.1678C332.054 59.8 332.363 57.3804 333.333 54.9092C334.303 52.4379 335.684 50.457 337.475 48.9663C339.298 47.4881 341.34 46.5709 343.601 46.2149C345.905 45.8395 348.214 46.1057 350.526 47.0133C352.871 47.9334 354.735 49.2863 356.118 51.0722C357.545 52.8389 358.402 54.8937 358.69 57.2366C358.989 59.5479 358.648 61.955 357.666 64.4579C357.603 64.6163 357.519 64.7844 357.413 64.962C357.351 65.1204 357.282 65.2947 357.208 65.4848L335.489 56.9618L336.478 54.443L356.39 62.2573L354.668 62.7331C355.377 60.9272 355.608 59.1718 355.363 57.467C355.163 55.7428 354.552 54.2237 353.532 52.9094C352.513 51.5951 351.131 50.5961 349.389 49.9123C347.678 49.2409 345.986 49.0339 344.313 49.2913C342.64 49.5488 341.143 50.2411 339.823 51.3685C338.503 52.4958 337.483 53.9782 336.762 55.8158L336.556 56.3386C335.81 58.2396 335.563 60.0804 335.815 61.861C336.111 63.6224 336.842 65.2072 338.008 66.6153C339.218 68.0042 340.789 69.0778 342.722 69.8363C344.242 70.433 345.758 70.717 347.268 70.6882C348.81 70.6718 350.274 70.2956 351.66 69.5597L352.703 72.4918C351.072 73.3873 349.28 73.8541 347.327 73.8922C345.406 73.9427 343.448 73.5763 341.452 72.793Z" fill="black"/>
<path d="M385.83 92.4739L399.939 72.3133L400.136 73.6349L391.059 67.2829L392.874 64.6896L412.491 78.4182L410.676 81.0115L401.6 74.6595L402.909 74.3916L388.799 94.5522L385.83 92.4739Z" fill="black"/>
<path d="M431.328 129.385L435.766 125.464L436.392 124.707L443.814 118.149C445.523 116.64 446.409 114.994 446.471 113.214C446.555 111.459 445.763 109.638 444.096 107.75C442.947 106.45 441.637 105.404 440.167 104.614C438.697 103.824 437.244 103.336 435.808 103.151L436.755 100.135C438.523 100.389 440.268 101.027 441.989 102.05C443.736 103.05 445.307 104.341 446.705 105.922C449.003 108.524 450.122 111.101 450.06 113.653C450.047 116.208 448.727 118.646 446.099 120.967L433.627 131.987L431.328 129.385ZM425.019 122.629C423.689 121.124 422.771 119.597 422.264 118.046C421.805 116.499 421.75 115.048 422.099 113.696C422.474 112.32 423.235 111.126 424.383 110.112C425.428 109.188 426.586 108.596 427.856 108.337C429.174 108.081 430.584 108.289 432.085 108.96C433.635 109.635 435.255 110.929 436.945 112.842L443.063 119.767L441.035 121.558L434.985 114.71C433.272 112.771 431.734 111.724 430.369 111.567C429.027 111.436 427.846 111.821 426.825 112.722C425.678 113.736 425.154 114.994 425.254 116.495C425.354 117.996 426.114 119.55 427.533 121.157C428.885 122.687 430.39 123.697 432.048 124.185C433.754 124.676 435.495 124.591 437.272 123.93L435.938 126.198C434.161 126.86 432.314 126.902 430.396 126.325C428.501 125.774 426.709 124.542 425.019 122.629Z" fill="black"/>
<path d="M471.682 184.999L497.238 176.918L498.33 180.374L475.793 187.501L480.734 203.126L503.271 196L504.364 199.456L478.809 207.537L471.682 184.999ZM472.904 210.368L479.378 208.321L479.363 209.289L477.716 204.081L480.734 203.126L483.135 210.72L473.935 213.629L472.904 210.368Z" fill="black"/>
<path d="M489.403 244.838L516.19 243.907L516.601 255.744C516.706 258.771 516.211 261.173 515.114 262.947C514.019 264.756 512.349 265.7 510.105 265.778C507.928 265.854 506.215 265.079 504.967 263.453C503.752 261.827 503.098 259.653 503.003 256.932L504.099 257.609C504.21 260.806 503.697 263.174 502.558 264.712C501.42 266.25 499.728 267.058 497.483 267.136C495.17 267.216 493.338 266.429 491.986 264.773C490.67 263.15 489.95 260.57 489.827 257.032L489.403 244.838ZM492.383 248.259L492.679 256.78C492.758 259.059 493.175 260.764 493.93 261.896C494.719 263.06 495.93 263.614 497.563 263.557C499.196 263.501 500.368 262.932 501.08 261.852C501.791 260.771 502.108 259.091 502.028 256.812L501.72 247.935L492.383 248.259ZM504.424 247.841L504.704 255.902C504.776 257.977 505.222 259.545 506.042 260.606C506.864 261.702 508.023 262.223 509.519 262.171C511.016 262.119 512.119 261.519 512.828 260.371C513.539 259.256 513.858 257.661 513.786 255.587L513.506 247.525L504.424 247.841Z" fill="black"/>
<path d="M487.847 312.149C488.464 309.427 489.569 307.165 491.164 305.362C492.792 303.568 494.734 302.315 496.989 301.604C499.277 300.901 501.715 300.843 504.304 301.43C506.893 302.017 509.06 303.083 510.803 304.63C512.539 306.21 513.753 308.09 514.446 310.271C515.164 312.493 515.248 314.815 514.699 317.238C514.142 319.694 513.086 321.741 511.528 323.377C509.997 325.054 508.094 326.211 505.821 326.848C503.582 327.492 501.151 327.517 498.528 326.923C498.362 326.885 498.183 326.827 497.992 326.749C497.826 326.711 497.643 326.67 497.444 326.625L502.6 303.87L505.239 304.468L500.512 325.33L499.782 323.699C501.674 324.128 503.444 324.093 505.093 323.594C506.767 323.136 508.177 322.304 509.323 321.098C510.468 319.892 511.248 318.376 511.662 316.55C512.068 314.758 512.018 313.054 511.511 311.438C511.005 309.823 510.095 308.448 508.782 307.313C507.469 306.178 505.85 305.392 503.924 304.956L503.377 304.832C501.385 304.38 499.528 304.413 497.806 304.93C496.109 305.488 494.652 306.449 493.436 307.814C492.245 309.219 491.42 310.934 490.961 312.959C490.6 314.552 490.548 316.093 490.804 317.582C491.052 319.104 491.644 320.494 492.58 321.754L489.839 323.226C488.708 321.749 487.977 320.047 487.645 318.123C487.306 316.231 487.373 314.24 487.847 312.149Z" fill="black"/>
<path d="M475.256 358.774L497.309 369.691L496.032 370.084L500.947 360.156L503.784 361.56L493.161 383.018L490.324 381.614L495.239 371.685L495.701 372.939L473.648 362.022L475.256 358.774Z" fill="black"/>
<path d="M445.377 409.73L449.913 413.537L450.755 414.043L458.341 420.41C460.088 421.875 461.847 422.507 463.617 422.304C465.365 422.126 467.048 421.073 468.667 419.144C469.783 417.814 470.622 416.364 471.185 414.793C471.749 413.221 472.015 411.712 471.985 410.265L475.108 410.753C475.12 412.54 474.747 414.36 473.991 416.214C473.262 418.09 472.218 419.836 470.862 421.452C468.631 424.112 466.248 425.6 463.715 425.919C461.187 426.285 458.58 425.341 455.894 423.088L443.145 412.389L445.377 409.73ZM451.121 402.488C452.412 400.949 453.786 399.814 455.244 399.083C456.706 398.399 458.132 398.13 459.522 398.274C460.937 398.44 462.232 399.015 463.405 400C464.474 400.897 465.231 401.954 465.676 403.171C466.124 404.437 466.128 405.862 465.687 407.446C465.25 409.079 464.211 410.873 462.57 412.828L456.631 419.907L454.558 418.168L460.432 411.167C462.095 409.186 462.902 407.509 462.855 406.136C462.785 404.789 462.229 403.678 461.186 402.803C460.013 401.819 458.692 401.487 457.222 401.809C455.752 402.131 454.328 403.113 452.95 404.755C451.637 406.32 450.863 407.958 450.626 409.67C450.393 411.429 450.736 413.139 451.654 414.798L449.213 413.816C448.295 412.156 447.978 410.336 448.264 408.354C448.528 406.399 449.48 404.443 451.121 402.488Z" fill="black"/>
</svg>
