<svg width="578" height="575" viewBox="0 0 578 575" fill="none" xmlns="http://www.w3.org/2000/svg">
<path d="M278.88 510.689C280.873 510.897 282.819 511.383 284.718 512.147C286.618 512.911 288.259 513.948 289.642 515.259L288.145 517.913C286.919 516.795 285.459 515.882 283.766 515.175C282.069 514.503 280.364 514.078 278.651 513.899C276.934 513.755 275.422 513.844 274.116 514.167C272.81 514.49 271.765 515.017 270.982 515.748C270.199 516.479 269.754 517.352 269.648 518.366C269.495 519.834 270.04 521.04 271.285 521.983C272.526 522.961 274.3 523.57 276.608 523.811L281.328 524.304L281.043 527.031L276.585 526.566C275.221 526.423 273.997 526.472 272.912 526.712C271.826 526.952 270.969 527.375 270.34 527.981C269.677 528.583 269.297 529.339 269.202 530.248C269.1 531.227 269.362 532.102 269.988 532.875C270.579 533.643 271.451 534.265 272.603 534.738C273.755 535.212 275.083 535.528 276.587 535.685C277.954 535.792 279.392 535.73 280.9 535.499C282.405 535.303 283.913 534.913 285.423 534.328L286.17 537.322C284.474 537.993 282.818 538.456 281.201 538.711C279.545 538.998 277.913 539.057 276.305 538.889C274.095 538.729 272.147 538.26 270.461 537.483C268.74 536.703 267.413 535.698 266.481 534.47C265.546 533.276 265.158 531.911 265.319 530.372C265.462 529.009 266.005 527.864 266.95 526.938C267.895 526.011 269.096 525.342 270.553 524.928C272.01 524.515 273.63 524.402 275.413 524.588L275.152 525.568C272.005 525.239 269.622 524.372 268.001 522.965C266.346 521.555 265.628 519.801 265.847 517.704C266.019 516.06 266.713 514.666 267.928 513.521C269.14 512.41 270.708 511.602 272.634 511.097C274.526 510.587 276.607 510.451 278.88 510.689Z" fill="black"/>
<path d="M221.141 500.531L219.078 506.289L218.89 507.286L215.44 516.916C214.646 519.134 214.664 521.063 215.495 522.705C216.293 524.335 217.916 525.588 220.365 526.466C222.053 527.07 223.759 527.364 225.483 527.346C227.206 527.329 228.764 527.047 230.155 526.499L230.801 529.699C229.074 530.35 227.177 530.642 225.111 530.574C223.032 530.539 220.967 530.154 218.915 529.419C215.54 528.21 213.244 526.435 212.029 524.096C210.768 521.777 210.748 518.914 211.969 515.505L217.765 499.322L221.141 500.531ZM230.215 503.501C232.167 504.201 233.759 505.125 234.99 506.276C236.176 507.447 236.948 508.732 237.306 510.13C237.652 511.561 237.559 513.021 237.025 514.51C236.539 515.867 235.786 516.979 234.766 517.846C233.702 518.734 232.323 519.248 230.629 519.388C228.891 519.55 226.781 519.186 224.299 518.297L215.314 515.079L216.257 512.448L225.142 515.631C227.657 516.531 229.571 516.713 230.884 516.175C232.164 515.625 233.041 514.688 233.515 513.365C234.048 511.875 233.896 510.477 233.058 509.168C232.22 507.86 230.758 506.832 228.673 506.086C226.687 505.374 224.823 505.211 223.08 505.594C221.292 506 219.759 506.944 218.481 508.428L218.558 505.711C219.836 504.227 221.486 503.269 223.508 502.835C225.497 502.39 227.733 502.612 230.215 503.501Z" fill="black"/>
<path d="M173.602 478.944C175.459 480.214 176.905 481.649 177.94 483.25C178.945 484.832 179.529 486.594 179.692 488.536C179.854 490.478 179.572 492.542 178.844 494.727C178.097 496.942 176.89 499.268 175.224 501.705C173.736 503.882 172.233 505.644 170.716 506.991C169.179 508.367 167.641 509.402 166.102 510.096C164.563 510.79 163.037 511.216 161.524 511.374C159.962 511.541 158.447 511.484 156.978 511.204C155.46 510.933 154.002 510.511 152.605 509.939L140.695 505.311L142.137 502.081L153.288 506.51C153.997 506.782 154.876 507.084 155.925 507.418C156.945 507.733 158.084 507.936 159.34 508.029C160.568 508.101 161.876 507.931 163.266 507.518C164.655 507.106 166.088 506.318 167.564 505.155C168.991 504.002 170.449 502.337 171.936 500.161C172.254 499.696 172.497 499.309 172.667 498.999C172.816 498.718 172.986 498.408 173.175 498.069C173.315 497.739 173.569 497.274 173.937 496.674L174.513 498.728C172.983 500.28 171.279 501.372 169.399 502.003C167.5 502.663 165.563 502.851 163.587 502.564C161.562 502.287 159.635 501.524 157.807 500.274C155.689 498.826 154.12 497.072 153.1 495.013C152.061 492.982 151.633 490.837 151.815 488.577C151.969 486.297 152.779 484.084 154.247 481.936C155.695 479.818 157.488 478.254 159.625 477.246C161.734 476.217 164 475.829 166.425 476.082C168.83 476.363 171.222 477.317 173.602 478.944ZM171.498 481.274C169.873 480.163 168.189 479.544 166.445 479.416C164.681 479.318 163.015 479.669 161.445 480.47C159.847 481.251 158.502 482.439 157.411 484.035C156.34 485.602 155.75 487.243 155.643 488.958C155.506 490.653 155.823 492.275 156.595 493.825C157.347 495.403 158.55 496.758 160.204 497.889C161.829 499 163.504 499.633 165.228 499.79C166.932 499.976 168.563 499.707 170.122 498.984C171.652 498.241 172.962 497.072 174.053 495.476C175.144 493.88 175.778 492.205 175.954 490.452C176.102 488.679 175.81 486.989 175.077 485.382C174.316 483.754 173.123 482.385 171.498 481.274Z" fill="black"/>
<path d="M119.409 433.265L98.2684 451.136L95.8515 448.277L116.992 430.406L119.409 433.265ZM115.624 456.557C113.404 453.876 112.281 451.35 112.256 448.978C112.23 446.607 113.304 444.502 115.479 442.663C117.734 440.757 120.101 440.045 122.58 440.527C125.059 441.009 127.465 442.658 129.798 445.472L136.838 453.882L115.697 471.754L113.28 468.894L120.65 462.665L115.624 456.557ZM127.794 447.512C126.141 445.502 124.492 444.342 122.847 444.029C121.153 443.713 119.514 444.224 117.93 445.563C116.346 446.902 115.611 448.374 115.726 449.98C115.814 451.609 116.696 453.441 118.371 455.477L122.784 460.861L132.207 452.895L127.794 447.512Z" fill="black"/>
<path d="M95.5127 402.666L70.307 414.111L65.2492 402.973C63.9556 400.124 63.4824 397.636 63.8294 395.51C64.1619 393.351 65.3843 391.793 67.4968 390.833C69.5453 389.903 71.4857 389.968 73.3181 391.028C75.1185 392.102 76.6001 393.919 77.7628 396.48L76.4494 396.265C75.0832 393.257 74.6405 390.794 75.1212 388.877C75.602 386.96 76.8986 385.522 79.0111 384.562C81.1875 383.574 83.2473 383.604 85.1903 384.652C87.0867 385.683 88.7907 387.862 90.3022 391.191L95.5127 402.666ZM91.3198 400.574L87.679 392.556C86.7052 390.411 85.6352 388.948 84.4689 388.165C83.256 387.364 81.8814 387.313 80.3451 388.01C78.8087 388.708 77.9138 389.713 77.6602 391.025C77.4066 392.337 77.7667 394.065 78.7404 396.209L82.5338 404.563L91.3198 400.574ZM79.9892 405.719L76.5447 398.133C75.6581 396.181 74.6142 394.859 73.4129 394.17C72.1971 393.448 70.8851 393.406 69.4768 394.046C68.0685 394.685 67.252 395.693 67.0275 397.069C66.7884 398.413 67.1122 400.061 67.9988 402.014L71.4433 409.599L79.9892 405.719Z" fill="black"/>
<path d="M58.1398 335.07C59.111 336.542 59.9467 338.055 60.6469 339.61C61.3064 341.136 61.7755 342.695 62.0541 344.288C62.6174 347.508 62.3354 350.181 61.2082 352.305C60.0463 354.435 57.9245 355.77 54.8427 356.309L45.909 357.872L45.273 354.236L53.999 352.71C56.0766 352.346 57.5167 351.398 58.3192 349.866C59.1218 348.334 59.3232 346.425 58.9234 344.14C58.6812 342.755 58.2536 341.331 57.6408 339.868C56.9934 338.411 56.1872 336.964 55.2221 335.527L58.1398 335.07ZM69.725 333.365L42.4565 338.135L41.8114 334.447L69.0799 329.677L69.725 333.365Z" fill="black"/>
<path d="M63.2124 293.206L35.6796 290.33L36.0686 286.606L57.9375 288.891L37.9917 268.199L38.3368 264.895L65.8696 267.771L65.4806 271.495L43.5593 269.205L63.563 289.85L63.2124 293.206Z" fill="black"/>
<path d="M71.3983 228.12L45.667 217.91L50.1785 206.54C51.3322 203.632 52.7952 201.565 54.5673 200.339C56.3524 199.081 58.3232 198.88 60.4797 199.735C62.5709 200.565 63.8706 202.007 64.379 204.062C64.8547 206.104 64.574 208.432 63.5369 211.046L62.7799 209.951C63.9985 206.88 65.4648 204.852 67.1788 203.868C68.8929 202.884 70.8282 202.82 72.9847 203.676C75.2066 204.557 76.6142 206.061 77.2077 208.187C77.7814 210.268 77.3941 213.008 76.0459 216.406L71.3983 228.12ZM69.9954 223.649L73.2429 215.464C74.1114 213.275 74.423 211.488 74.1777 210.105C73.9125 208.676 72.9958 207.651 71.4274 207.029C69.859 206.406 68.5145 206.459 67.3938 207.187C66.273 207.914 65.2784 209.373 64.4098 211.562L61.0262 220.09L69.9954 223.649ZM58.4286 219.06L61.501 211.316C62.2918 209.323 62.5189 207.654 62.1822 206.31C61.8585 204.934 60.9778 203.96 59.5401 203.39C58.1024 202.82 56.8103 202.931 55.6636 203.724C54.5299 204.484 53.5677 205.861 52.7769 207.854L49.7044 215.598L58.4286 219.06Z" fill="black"/>
<path d="M100.21 166.327C98.6309 168.481 96.7254 170.07 94.4937 171.093C92.2545 172.067 89.9206 172.426 87.4922 172.171C85.0354 171.896 82.7013 170.948 80.4899 169.327C78.2501 167.685 76.6434 165.745 75.6696 163.505C74.6959 161.266 74.3506 158.943 74.6335 156.535C74.9165 154.127 75.8581 151.832 77.4584 149.649C79.0794 147.437 80.9953 145.835 83.2062 144.84C85.4378 143.817 87.7575 143.447 90.1652 143.73C92.5936 143.985 94.9277 144.933 97.1675 146.575C99.3789 148.196 100.986 150.136 101.988 152.396C102.982 154.607 103.342 156.941 103.066 159.398C102.763 161.834 101.811 164.143 100.21 166.327ZM97.5311 164.363C98.7157 162.747 99.4108 161.055 99.6165 159.288C99.7937 157.5 99.4901 155.774 98.7055 154.109C97.9133 152.395 96.6525 150.905 94.923 149.637C93.1652 148.348 91.3641 147.595 89.5196 147.376C87.6959 147.129 85.9724 147.369 84.3492 148.097C82.6977 148.804 81.29 149.951 80.1262 151.539C78.9624 153.127 78.2919 154.815 78.1146 156.602C77.909 158.369 78.1881 160.099 78.9519 161.793C79.7157 163.486 80.9765 164.976 82.7343 166.265C84.4638 167.533 86.2649 168.286 88.1377 168.526C89.9822 168.745 91.7303 168.501 93.3818 167.793C95.005 167.066 96.3881 165.922 97.5311 164.363Z" fill="black"/>
<path d="M136.726 122.716C134.607 124.456 132.325 125.555 129.882 126.013C127.444 126.423 125.081 126.202 122.792 125.353C120.48 124.476 118.455 122.977 116.715 120.858C114.954 118.711 113.879 116.432 113.492 114.021C113.105 111.61 113.361 109.263 114.261 106.979C115.187 104.672 116.71 102.649 118.83 100.91C120.65 99.4156 122.584 98.4196 124.631 97.9219C126.679 97.4241 128.703 97.5361 130.705 98.2578L129.749 101.498C128.123 101.013 126.555 100.959 125.045 101.334C123.534 101.71 122.14 102.422 120.863 103.47C119.341 104.719 118.259 106.199 117.616 107.909C116.951 109.591 116.778 111.348 117.097 113.178C117.416 115.007 118.267 116.765 119.65 118.449C121.033 120.134 122.59 121.311 124.323 121.982C126.055 122.652 127.822 122.838 129.625 122.541C131.405 122.217 133.056 121.431 134.578 120.182C135.855 119.134 136.825 117.905 137.488 116.497C138.152 115.089 138.415 113.554 138.279 111.892L141.644 111.586C141.939 113.663 141.653 115.671 140.788 117.609C139.901 119.519 138.547 121.222 136.726 122.716Z" fill="black"/>
<path d="M177.699 92.105L166.677 69.204L167.967 69.6952L157.657 74.6572L156.239 71.7115L178.522 60.987L179.94 63.9327L169.63 68.8948L170.051 67.5805L181.073 90.4815L177.699 92.105Z" fill="black"/>
<path d="M224.62 53.5646C228.03 52.8688 230.77 53.0718 232.84 54.1736C234.944 55.268 236.295 57.2072 236.893 59.9911C237.512 62.8782 237.026 65.3016 235.433 67.2613C233.874 69.2136 231.287 70.5598 227.671 71.2998L216.73 73.5936L210.922 46.5272L214.582 45.7417L216.607 55.1763L224.62 53.5646ZM226.867 68.5601C229.383 68.056 231.167 67.152 232.217 65.848C233.295 64.5023 233.616 62.8155 233.181 60.7877C232.746 58.7599 231.793 57.4184 230.322 56.7633C228.843 56.0738 226.829 55.9848 224.278 56.4962L217.193 57.9087L219.782 69.9726L226.867 68.5601Z" fill="black"/>
<path d="M314.113 64.5681C312.139 64.2228 310.231 63.6036 308.389 62.7104C306.547 61.8171 304.981 60.6689 303.692 59.2658L305.368 56.722C306.514 57.9217 307.908 58.9327 309.548 59.7549C311.195 60.5425 312.866 61.0848 314.563 61.3816C316.266 61.6437 317.78 61.6588 319.105 61.4267C320.43 61.1946 321.509 60.7409 322.341 60.0656C323.173 59.3904 323.676 58.5506 323.852 57.5465C324.106 56.0921 323.645 54.8517 322.469 53.8251C321.298 52.7639 319.571 52.0334 317.285 51.6336L312.611 50.8159L313.083 48.115L317.498 48.8873C318.848 49.1235 320.073 49.1594 321.173 48.9948C322.272 48.8303 323.156 48.4675 323.825 47.9065C324.529 47.3516 324.96 46.624 325.117 45.7237C325.287 44.7541 325.086 43.8625 324.515 43.0488C323.978 42.2412 323.151 41.5613 322.034 41.0091C320.918 40.4569 319.615 40.0505 318.126 39.7901C316.769 39.5885 315.331 39.5509 313.81 39.6774C312.295 39.7693 310.764 40.0546 309.217 40.5335L308.678 37.495C310.416 36.9426 312.101 36.5949 313.731 36.452C315.403 36.2805 317.035 36.334 318.628 36.6127C320.822 36.925 322.733 37.5269 324.361 38.4184C326.024 39.316 327.278 40.4097 328.123 41.6994C328.974 42.9546 329.266 44.3439 329 45.8675C328.763 47.2179 328.142 48.3226 327.135 49.1814C326.129 50.0402 324.884 50.6255 323.402 50.9372C321.92 51.2489 320.296 51.2504 318.53 50.9414L318.859 49.9818C321.975 50.527 324.293 51.5569 325.812 53.0717C327.366 54.5926 327.962 56.3918 327.598 58.4694C327.314 60.0969 326.526 61.44 325.234 62.4988C323.949 63.5229 322.328 64.2208 320.371 64.5923C318.45 64.9699 316.363 64.9618 314.113 64.5681Z" fill="black"/>
<path d="M370.518 78.4583L372.963 72.8519L373.219 71.8704L377.309 62.4943C378.251 60.3355 378.362 58.4092 377.644 56.7151C376.958 55.0351 375.422 53.6751 373.038 52.635C371.395 51.9182 369.713 51.5104 367.992 51.4116C366.271 51.3128 364.698 51.4896 363.273 51.942L362.844 48.7058C364.611 48.1725 366.523 48.0095 368.58 48.2166C370.651 48.3915 372.686 48.9147 374.684 49.7861C377.97 51.2198 380.141 53.1447 381.196 55.561C382.298 57.9591 382.125 60.8175 380.677 64.1362L373.804 79.8919L370.518 78.4583ZM361.664 74.8839C359.763 74.0546 358.238 73.0247 357.087 71.7941C355.983 70.5453 355.299 69.2115 355.036 67.7927C354.786 66.3418 354.978 64.8913 355.611 63.4414C356.187 62.1204 357.013 61.0617 358.089 60.2655C359.211 59.4511 360.622 59.031 362.321 59.005C364.066 58.9609 366.147 59.4659 368.563 60.52L377.311 64.336L376.193 66.8976L367.542 63.1237C365.094 62.0555 363.196 61.7455 361.85 62.1938C360.536 62.6562 359.598 63.5317 359.036 64.8205C358.403 66.2705 358.461 67.6764 359.209 69.0382C359.958 70.4001 361.347 71.5238 363.377 72.4093C365.31 73.2526 367.159 73.5415 368.924 73.2759C370.735 72.9922 372.328 72.1531 373.704 70.7588L373.444 73.4643C372.069 74.8587 370.358 75.7039 368.311 75.9999C366.296 76.31 364.081 75.938 361.664 74.8839Z" fill="black"/>
<path d="M416.226 102.952C414.456 101.563 413.108 100.036 412.181 98.37C411.282 96.7259 410.815 94.9295 410.78 92.9808C410.745 91.0321 411.163 88.9914 412.032 86.8586C412.923 84.6981 414.28 82.4564 416.103 80.1334C417.731 78.0594 419.346 76.4 420.948 75.1552C422.572 73.8827 424.175 72.9509 425.756 72.3596C427.337 71.7683 428.888 71.4436 430.408 71.3854C431.978 71.3213 433.486 71.4774 434.934 71.8536C436.43 72.2239 437.857 72.7404 439.214 73.4029L450.794 78.8039L449.143 81.9322L438.307 76.7796C437.618 76.4622 436.761 76.1024 435.736 75.7002C434.738 75.3197 433.616 75.042 432.368 74.867C431.148 74.7138 429.831 74.7975 428.417 75.1182C427.004 75.4388 425.522 76.1308 423.973 77.1939C422.473 78.2511 420.91 79.8167 419.282 81.8907C418.935 82.3332 418.666 82.7035 418.477 83.0018C418.309 83.2723 418.12 83.5706 417.909 83.8965C417.747 84.2164 417.463 84.6638 417.057 85.2386L416.617 83.1509C418.245 81.7028 420.018 80.7254 421.935 80.2188C423.873 79.6846 425.819 79.6252 427.772 80.0406C429.774 80.4501 431.646 81.3384 433.388 82.7056C435.407 84.2899 436.857 86.1429 437.739 88.2648C438.643 90.3591 438.929 92.5278 438.599 94.7708C438.296 97.0356 437.342 99.1912 435.736 101.238C434.152 103.256 432.26 104.699 430.061 105.565C427.89 106.453 425.603 106.691 423.2 106.28C420.818 105.841 418.494 104.732 416.226 102.952ZM418.479 100.765C420.027 101.98 421.668 102.709 423.399 102.951C425.153 103.165 426.838 102.924 428.457 102.228C430.103 101.554 431.523 100.456 432.717 98.9353C433.889 97.442 434.585 95.8433 434.805 94.1393C435.053 92.457 434.842 90.8174 434.174 89.2206C433.527 87.5961 432.416 86.1653 430.84 84.9283C429.291 83.713 427.662 82.9706 425.952 82.7012C424.264 82.404 422.618 82.5649 421.015 83.1839C419.44 83.8245 418.056 84.9053 416.862 86.4263C415.669 87.9472 414.926 89.5765 414.635 91.3141C414.371 93.0734 414.552 94.7792 415.177 96.4313C415.83 98.1052 416.93 99.5498 418.479 100.765Z" fill="black"/>
<path d="M466.834 151.352L489.101 134.905L491.325 137.916L469.058 154.363L466.834 151.352ZM472.138 128.358C474.177 131.178 475.132 133.772 475.002 136.141C474.873 138.509 473.663 140.539 471.372 142.231C468.997 143.985 466.589 144.541 464.147 143.897C461.705 143.254 459.412 141.451 457.268 138.49L450.794 129.636L473.061 113.189L475.285 116.2L467.524 121.933L472.138 128.358ZM459.402 136.586C460.919 138.699 462.488 139.966 464.109 140.385C465.779 140.812 467.448 140.41 469.117 139.177C470.785 137.945 471.614 136.524 471.605 134.914C471.624 133.283 470.864 131.397 469.326 129.255L465.276 123.594L455.351 130.925L459.402 136.586Z" fill="black"/>
<path d="M488.825 183.137L514.706 173.315L519.047 184.752C520.157 187.677 520.471 190.19 519.99 192.29C519.521 194.423 518.202 195.901 516.033 196.724C513.929 197.523 511.997 197.335 510.235 196.161C508.507 194.975 507.144 193.067 506.146 190.438L507.443 190.735C508.616 193.824 508.901 196.31 508.299 198.193C507.698 200.075 506.313 201.428 504.144 202.252C501.909 203.1 499.855 202.939 497.983 201.77C496.155 200.621 494.593 198.337 493.296 194.919L488.825 183.137ZM492.876 185.491L496.001 193.724C496.836 195.926 497.811 197.455 498.925 198.31C500.085 199.186 501.454 199.325 503.031 198.726C504.609 198.127 505.566 197.181 505.902 195.888C506.238 194.595 505.989 192.847 505.153 190.645L501.898 182.067L492.876 185.491ZM504.511 181.076L507.467 188.865C508.227 190.87 509.185 192.254 510.34 193.019C511.508 193.817 512.815 193.941 514.261 193.393C515.707 192.844 516.586 191.89 516.897 190.531C517.221 189.205 517.002 187.539 516.242 185.535L513.286 177.746L504.511 181.076Z" fill="black"/>
<path d="M522.192 254.245C521.324 252.71 520.595 251.142 520.004 249.543C519.451 247.975 519.091 246.387 518.923 244.778C518.583 241.527 519.049 238.88 520.32 236.839C521.626 234.794 523.835 233.609 526.947 233.284L535.967 232.342L536.351 236.013L527.54 236.933C525.443 237.152 523.94 237.998 523.034 239.471C522.128 240.945 521.795 242.835 522.036 245.142C522.182 246.541 522.51 247.991 523.021 249.493C523.566 250.991 524.27 252.49 525.134 253.99L522.192 254.245ZM510.516 255.146L538.049 252.27L538.438 255.993L510.905 258.87L510.516 255.146Z" fill="black"/>
<path d="M514.488 295.276L541.775 299.942L541.144 303.632L519.47 299.926L538.024 321.875L537.465 325.149L510.178 320.484L510.809 316.794L532.534 320.508L513.919 298.602L514.488 295.276Z" fill="black"/>
<path d="M501.965 360.154L526.953 372.067L521.689 383.109C520.343 385.933 518.744 387.897 516.894 389.001C515.029 390.137 513.049 390.206 510.954 389.207C508.924 388.239 507.724 386.713 507.354 384.629C507.017 382.56 507.453 380.256 508.663 377.717L509.345 378.86C507.923 381.843 506.324 383.768 504.548 384.634C502.771 385.501 500.836 385.435 498.742 384.437C496.584 383.408 495.281 381.813 494.831 379.652C494.398 377.537 494.968 374.83 496.542 371.53L501.965 360.154ZM503.064 364.709L499.275 372.658C498.262 374.784 497.831 376.545 497.983 377.942C498.152 379.385 498.998 380.47 500.521 381.196C502.044 381.922 503.389 381.96 504.556 381.309C505.723 380.658 506.813 379.269 507.827 377.143L511.775 368.862L503.064 364.709ZM514.297 370.064L510.712 377.584C509.79 379.52 509.451 381.17 509.697 382.533C509.927 383.928 510.741 384.958 512.137 385.624C513.533 386.289 514.83 386.265 516.027 385.551C517.209 384.868 518.262 383.559 519.185 381.623L522.77 374.103L514.297 370.064Z" fill="black"/>
<path d="M469.38 419.642C471.097 417.596 473.102 416.135 475.396 415.261C477.695 414.436 480.047 414.23 482.454 414.643C484.887 415.079 487.154 416.179 489.254 417.941C491.382 419.726 492.858 421.768 493.682 424.066C494.507 426.364 494.7 428.705 494.259 431.089C493.819 433.473 492.729 435.702 490.989 437.775C489.227 439.876 487.21 441.35 484.938 442.197C482.645 443.071 480.306 443.289 477.922 442.848C475.515 442.435 473.248 441.336 471.121 439.551C469.021 437.788 467.544 435.747 466.693 433.426C465.845 431.154 465.64 428.802 466.075 426.369C466.538 423.958 467.64 421.715 469.38 419.642ZM471.924 421.777C470.636 423.312 469.832 424.955 469.511 426.704C469.217 428.477 469.406 430.219 470.08 431.932C470.758 433.694 471.919 435.264 473.561 436.642C475.231 438.043 476.979 438.914 478.805 439.253C480.608 439.619 482.344 439.492 484.011 438.872C485.706 438.275 487.186 437.222 488.451 435.714C489.716 434.206 490.496 432.566 490.79 430.794C491.111 429.044 490.946 427.3 490.295 425.56C489.644 423.82 488.483 422.25 486.814 420.849C485.171 419.471 483.423 418.601 481.57 418.239C479.744 417.9 477.984 418.029 476.29 418.626C474.622 419.246 473.167 420.296 471.924 421.777Z" fill="black"/>
<path d="M430.533 460.484C432.762 458.888 435.11 457.941 437.578 457.643C440.038 457.395 442.382 457.77 444.61 458.768C446.859 459.794 448.782 461.422 450.379 463.651C451.996 465.909 452.918 468.253 453.146 470.684C453.374 473.116 452.965 475.441 451.917 477.662C450.842 479.902 449.189 481.821 446.96 483.418C445.045 484.789 443.05 485.656 440.975 486.019C438.9 486.381 436.887 486.136 434.936 485.285L436.103 482.114C437.693 482.705 439.254 482.862 440.786 482.586C442.319 482.31 443.756 481.691 445.099 480.729C446.7 479.583 447.877 478.178 448.63 476.514C449.405 474.878 449.692 473.137 449.494 471.29C449.295 469.443 448.561 467.634 447.292 465.862C446.023 464.09 444.546 462.813 442.861 462.031C441.177 461.249 439.425 460.947 437.607 461.125C435.809 461.331 434.11 462.008 432.51 463.154C431.167 464.116 430.118 465.278 429.364 466.64C428.61 468.002 428.246 469.516 428.273 471.184L424.896 471.268C424.738 469.176 425.154 467.191 426.144 465.314C427.155 463.466 428.618 461.856 430.533 460.484Z" fill="black"/>
<path d="M387.905 488.388L397.454 511.941L396.198 511.369L406.802 507.07L408.031 510.099L385.113 519.391L383.884 516.361L394.488 512.062L393.985 513.347L384.436 489.794L387.905 488.388Z" fill="black"/>
<path d="M337.955 524.115C334.507 524.588 331.786 524.208 329.792 522.974C327.763 521.745 326.541 519.722 326.126 516.905C325.695 513.984 326.338 511.597 328.055 509.745C329.737 507.898 332.407 506.723 336.063 506.219L347.13 504.642L351.167 532.028L347.463 532.574L346.056 523.028L337.955 524.115ZM336.687 509.006C334.143 509.345 332.305 510.131 331.172 511.364C330.009 512.637 329.579 514.299 329.882 516.351C330.184 518.403 331.048 519.804 332.473 520.553C333.904 521.337 335.908 521.557 338.487 521.212L345.649 520.263L343.849 508.057L336.687 509.006Z" fill="black"/>
</svg>
